<?xml version="1.0" encoding="UTF-8" standalone="no"?><!DOCTYPE svg PUBLIC "-//W3C//DTD SVG 1.1//EN" "http://www.w3.org/Graphics/SVG/1.1/DTD/svg11.dtd"><svg width="100%" height="100%" viewBox="0 0 1165 285" version="1.1" xmlns="http://www.w3.org/2000/svg" xmlns:xlink="http://www.w3.org/1999/xlink" xml:space="preserve" xmlns:serif="http://www.serif.com/" style="fill-rule:evenodd;clip-rule:evenodd;stroke-linejoin:round;stroke-miterlimit:2;"><g><path d="M54.748,254.493c-16.94,0 -29.857,-4.817 -38.75,-14.452c-8.894,-9.634 -13.34,-23.451 -13.34,-41.449l-0,-169.61l34.938,-0l0,172.151c0,7.623 1.535,13.128 4.606,16.516c3.07,3.388 7.464,5.082 13.181,5.082c5.717,-0 10.111,-1.694 13.181,-5.082c3.071,-3.388 4.606,-8.893 4.606,-16.516l-0,-172.151l33.668,-0l-0,169.61c-0,17.998 -4.447,31.815 -13.34,41.449c-8.894,9.635 -21.81,14.452 -38.75,14.452Z" style="fill-rule:nonzero;"/><path d="M131.612,28.982l43.832,-0l33.986,133.083l0.635,0l-0,-133.083l31.127,-0l-0,222.335l-35.891,-0l-41.927,-162.305l-0.635,0l0,162.305l-31.127,-0l0,-222.335Z" style="fill-rule:nonzero;"/><rect x="267.237" y="28.982" width="34.938" height="222.335" style="fill-rule:nonzero;"/><path d="M328.22,28.982l43.832,-0l33.986,133.083l0.635,0l-0,-133.083l31.127,-0l-0,222.335l-35.892,-0l-41.926,-162.305l-0.635,0l0,162.305l-31.127,-0l0,-222.335Z" style="fill-rule:nonzero;"/><path d="M491.16,60.744l-36.526,-0l-0,-31.762l107.991,-0l0,31.762l-36.526,-0l-0,190.573l-34.939,-0l0,-190.573Z" style="fill-rule:nonzero;"/><path d="M630.279,254.493c-16.94,0 -29.857,-4.817 -38.75,-14.452c-8.894,-9.634 -13.34,-23.451 -13.34,-41.449l-0,-169.61l34.938,-0l0,172.151c0,7.623 1.535,13.128 4.606,16.516c3.07,3.388 7.464,5.082 13.181,5.082c5.717,-0 10.111,-1.694 13.181,-5.082c3.071,-3.388 4.606,-8.893 4.606,-16.516l-0,-172.151l33.668,-0l-0,169.61c-0,17.998 -4.447,31.815 -13.341,41.449c-8.893,9.635 -21.81,14.452 -38.749,14.452Z" style="fill-rule:nonzero;"/><rect x="707.143" y="28.982" width="34.938" height="222.335" style="fill-rule:nonzero;"/><path d="M795.442,60.744l-36.527,-0l0,-31.762l107.992,-0l-0,31.762l-36.527,-0l0,190.573l-34.938,-0l0,-190.573Z" style="fill-rule:nonzero;"/><rect x="883.741" y="28.982" width="34.938" height="222.335" style="fill-rule:nonzero;"/><path d="M935.513,28.982l35.256,-0l22.869,172.468l0.635,0l22.869,-172.468l32.08,-0l-33.668,222.335l-46.373,-0l-33.668,-222.335Z" style="fill-rule:nonzero;"/><path d="M1066.06,28.982l95.286,-0l0,31.762l-60.348,-0l0,58.76l47.961,-0l0,31.762l-47.961,-0l0,68.289l60.348,-0l0,31.762l-95.286,-0l-0,-222.335Z" style="fill-rule:nonzero;"/></g></svg>