<?xml version="1.0" encoding="UTF-8" standalone="no"?><!DOCTYPE svg PUBLIC "-//W3C//DTD SVG 1.1//EN" "http://www.w3.org/Graphics/SVG/1.1/DTD/svg11.dtd"><svg width="100%" height="100%" viewBox="0 0 97 48" version="1.1" xmlns="http://www.w3.org/2000/svg" xmlns:xlink="http://www.w3.org/1999/xlink" xml:space="preserve" xmlns:serif="http://www.serif.com/" style="fill-rule:evenodd;clip-rule:evenodd;stroke-linejoin:round;stroke-miterlimit:2;"><g><g><path d="M31.757,16.408c-0.774,-0 -1.431,0.27 -1.971,0.81c-0.54,0.54 -0.81,1.188 -0.81,1.944l-0,11.614c-0,0.775 0.27,1.431 0.81,1.972c0.54,0.54 1.197,0.81 1.971,0.81c0.774,-0 1.427,-0.27 1.959,-0.81c0.53,-0.54 0.796,-1.197 0.796,-1.972l0,-11.614c0,-0.756 -0.27,-1.404 -0.81,-1.944c-0.54,-0.54 -1.188,-0.81 -1.945,-0.81Z" style="fill-rule:nonzero;"/><path d="M54.12,5.982l1.918,-3.537c0.126,-0.235 0.081,-0.414 -0.135,-0.541c-0.234,-0.108 -0.414,-0.053 -0.54,0.162l-1.944,3.566c-1.711,-0.757 -3.521,-1.136 -5.429,-1.136c-1.909,0 -3.719,0.379 -5.429,1.136l-1.944,-3.566c-0.127,-0.215 -0.307,-0.27 -0.54,-0.162c-0.217,0.127 -0.262,0.306 -0.135,0.541l1.918,3.537c-1.945,0.992 -3.494,2.373 -4.646,4.146c-1.152,1.775 -1.729,3.714 -1.729,5.821l24.982,-0c0,-2.107 -0.576,-4.046 -1.728,-5.821c-1.153,-1.773 -2.692,-3.154 -4.619,-4.146Zm-11.086,5.145c-0.208,0.208 -0.455,0.312 -0.743,0.312c-0.289,-0 -0.532,-0.104 -0.729,-0.312c-0.198,-0.206 -0.297,-0.453 -0.297,-0.742c-0,-0.288 0.099,-0.535 0.297,-0.743c0.197,-0.206 0.441,-0.31 0.729,-0.31c0.288,0 0.535,0.104 0.743,0.31c0.206,0.208 0.31,0.455 0.31,0.743c-0,0.288 -0.104,0.536 -0.31,0.742Zm11.383,0c-0.198,0.208 -0.441,0.312 -0.729,0.312c-0.288,-0 -0.536,-0.104 -0.743,-0.312c-0.207,-0.206 -0.311,-0.453 -0.311,-0.742c0,-0.288 0.104,-0.535 0.311,-0.743c0.207,-0.206 0.455,-0.31 0.743,-0.31c0.288,0 0.531,0.104 0.729,0.31c0.198,0.208 0.297,0.455 0.297,0.743c0,0.288 -0.099,0.536 -0.297,0.742Z" style="fill-rule:nonzero;"/><path d="M35.593,34.908c-0,0.829 0.287,1.531 0.863,2.107c0.577,0.576 1.279,0.864 2.107,0.864l1.999,-0l0.027,6.131c0,0.774 0.27,1.432 0.81,1.972c0.54,0.54 1.189,0.81 1.945,0.81c0.774,0 1.431,-0.27 1.971,-0.81c0.54,-0.54 0.81,-1.198 0.81,-1.972l0,-6.131l3.727,0l0,6.131c0,0.774 0.27,1.432 0.811,1.972c0.54,0.54 1.197,0.81 1.971,0.81c0.774,0 1.431,-0.27 1.971,-0.81c0.541,-0.54 0.81,-1.198 0.81,-1.972l0,-6.131l2.026,0c0.81,0 1.503,-0.288 2.08,-0.864c0.576,-0.576 0.864,-1.277 0.864,-2.106l-0,-17.989l-24.792,0l-0,17.988Z" style="fill-rule:nonzero;"/><path d="M64.222,16.408c-0.757,-0 -1.405,0.266 -1.945,0.796c-0.54,0.532 -0.81,1.185 -0.81,1.958l-0,11.614c-0,0.775 0.27,1.431 0.81,1.972c0.54,0.54 1.189,0.81 1.945,0.81c0.774,-0 1.431,-0.27 1.971,-0.81c0.54,-0.541 0.81,-1.197 0.81,-1.972l0,-11.614c0,-0.773 -0.27,-1.426 -0.81,-1.958c-0.54,-0.53 -1.197,-0.796 -1.971,-0.796Z" style="fill-rule:nonzero;"/></g></g><g id="_7935ec95c421cee6d86eb22ecd13295e" serif:id="7935ec95c421cee6d86eb22ecd13295e"><path d="M-35.94,-43.335c-0,-0 10.21,-5.551 18.944,1.139l-4.888,16.795c-0,0 -5.474,-3.766 -9.534,-3.359c-4.06,0.408 -9.411,2.35 -9.411,2.35l4.889,-16.925Zm-10.615,36.804c2.254,-1.165 5.636,-1.756 9.533,-2.082c3.9,-0.326 9.389,3.246 9.389,3.246l4.939,-16.974c-0.782,-0.561 -4.416,-3.008 -8.965,-3.334c-4.551,-0.325 -10.033,2.224 -10.033,2.224l-4.863,16.92Zm21.556,2.659c0.892,0.352 3.821,3.137 8.695,3.385c4.875,0.241 10.251,-2.275 10.251,-2.275c0,0 4.789,-16.756 4.885,-16.821c0.033,-0.017 -0.06,0.049 -0.097,0.065c-4.558,1.784 -6.885,2.05 -10.247,2.131c-3.413,0.082 -8.624,-3.309 -8.624,-3.309l-4.863,16.824Zm10.588,-36.55l-4.899,16.697c0,0 3.98,3.9 9.585,3.576c5.608,-0.326 8.651,-2.094 9.395,-2.343l4.863,-16.846c0,-0 -6.459,2.697 -10.682,2.208c-4.226,-0.489 -6.854,-2.284 -8.262,-3.292Z" style="fill-rule:nonzero;"/><g id="Page-1"><g id="Dribbble-Light-Preview"><g id="icons"><path id="apple---173-" serif:id="apple-[#173]" d="M124.615,-39.753c1.689,-1.957 2.827,-4.684 2.516,-7.396c-2.434,0.092 -5.379,1.554 -7.124,3.509c-1.567,1.735 -2.935,4.508 -2.568,7.168c2.715,0.201 5.487,-1.321 7.176,-3.281m6.088,17.217c0.068,7.013 6.419,9.345 6.489,9.376c-0.052,0.164 -1.014,3.324 -3.345,6.59c-2.017,2.822 -4.109,5.632 -7.405,5.692c-3.238,0.058 -4.28,-1.839 -7.984,-1.839c-3.701,-0 -4.858,1.779 -7.922,1.897c-3.181,0.114 -5.606,-3.053 -7.637,-5.866c-4.155,-5.752 -7.33,-16.255 -3.066,-23.344c2.117,-3.519 5.901,-5.75 10.01,-5.805c3.122,-0.058 6.071,2.013 7.981,2.013c1.909,-0 5.493,-2.49 9.26,-2.124c1.576,0.062 6.004,0.609 8.845,4.596c-0.229,0.136 -5.282,2.953 -5.226,8.814"/></g></g></g></g></svg>