<?xml version="1.0" encoding="UTF-8" standalone="no"?><!DOCTYPE svg PUBLIC "-//W3C//DTD SVG 1.1//EN" "http://www.w3.org/Graphics/SVG/1.1/DTD/svg11.dtd"><svg width="100%" height="100%" viewBox="0 0 97 48" version="1.1" xmlns="http://www.w3.org/2000/svg" xmlns:xlink="http://www.w3.org/1999/xlink" xml:space="preserve" xmlns:serif="http://www.serif.com/" style="fill-rule:evenodd;clip-rule:evenodd;stroke-linejoin:round;stroke-miterlimit:2;"><g id="_7935ec95c421cee6d86eb22ecd13295e" serif:id="7935ec95c421cee6d86eb22ecd13295e"><g id="Page-1"><g id="Dribbble-Light-Preview"><g id="icons"><path id="apple---173-" serif:id="apple-[#173]" d="M54.997,7.924c1.689,-1.957 2.827,-4.684 2.515,-7.396c-2.433,0.092 -5.378,1.554 -7.123,3.509c-1.567,1.735 -2.935,4.508 -2.568,7.168c2.715,0.201 5.487,-1.321 7.176,-3.281m6.088,17.217c0.068,7.013 6.418,9.345 6.489,9.375c-0.052,0.165 -1.015,3.325 -3.345,6.591c-2.017,2.822 -4.109,5.632 -7.405,5.692c-3.238,0.058 -4.28,-1.839 -7.984,-1.839c-3.701,-0 -4.858,1.779 -7.922,1.897c-3.181,0.113 -5.606,-3.053 -7.637,-5.866c-4.156,-5.752 -7.33,-16.255 -3.066,-23.344c2.117,-3.519 5.901,-5.75 10.009,-5.805c3.123,-0.058 6.072,2.013 7.981,2.013c1.91,-0 5.494,-2.491 9.261,-2.125c1.576,0.063 6.004,0.61 8.845,4.597c-0.229,0.136 -5.282,2.953 -5.226,8.814"/></g></g></g></g></svg>