<?xml version="1.0" encoding="UTF-8" standalone="no"?><!DOCTYPE svg PUBLIC "-//W3C//DTD SVG 1.1//EN" "http://www.w3.org/Graphics/SVG/1.1/DTD/svg11.dtd"><svg width="100%" height="100%" viewBox="0 0 97 48" version="1.1" xmlns="http://www.w3.org/2000/svg" xmlns:xlink="http://www.w3.org/1999/xlink" xml:space="preserve" xmlns:serif="http://www.serif.com/" style="fill-rule:evenodd;clip-rule:evenodd;stroke-linejoin:round;stroke-miterlimit:2;"><g id="_7935ec95c421cee6d86eb22ecd13295e" serif:id="7935ec95c421cee6d86eb22ecd13295e"><g id="Page-1"></g><g id="c133de6af664cd4f011a55de6b001a2b"><g id="_5151e0c8492e5103c096af88a51f8fd4" serif:id="5151e0c8492e5103c096af88a51f8fd4"><path d="M17.733,36.635c4.475,-0.79 8.172,-1.444 8.214,-1.453l0.077,-0.017l-4.225,-5.025c-2.323,-2.764 -4.225,-5.036 -4.225,-5.049c0,-0.025 4.363,-12.039 4.388,-12.082c0.008,-0.014 2.977,5.112 7.196,12.425c3.951,6.848 7.208,12.493 7.238,12.546l0.055,0.096l-13.427,-0.002l-13.427,-0.001l8.136,-1.438l0,0Zm51.492,-1.215c-2.044,-0.131 -3.233,-1.295 -3.548,-3.473c-0.083,-0.58 -0.084,-0.595 -0.092,-4.357l-0.009,-3.641l1.81,-0l0.007,3.522c0.006,3.174 0.01,3.546 0.04,3.769c0.124,0.907 0.369,1.516 0.786,1.953c0.334,0.351 0.725,0.556 1.267,0.664c0.255,0.052 0.982,0.052 1.215,0.001c0.549,-0.121 0.988,-0.36 1.377,-0.748c0.442,-0.442 0.769,-1.069 0.927,-1.779l0.054,-0.239l0.012,-7.103l1.847,-0l-0,11.166l-1.828,0l-0,-0.885c-0,-0.602 -0.007,-0.884 -0.021,-0.879c-0.011,0.003 -0.058,0.075 -0.104,0.159c-0.315,0.575 -0.84,1.1 -1.415,1.416c-0.689,0.38 -1.381,0.515 -2.325,0.454l0,-0Zm20.746,-0.009c-0.722,-0.054 -1.482,-0.302 -2.103,-0.686c-1.308,-0.81 -2.083,-2.144 -2.309,-3.981c-0.079,-0.635 -0.088,-1.489 -0.023,-2.029c0.147,-1.206 0.621,-2.391 1.296,-3.236c0.173,-0.217 0.565,-0.609 0.782,-0.783c0.586,-0.467 1.27,-0.794 1.997,-0.953c0.424,-0.092 1.169,-0.136 1.619,-0.094c1.131,0.105 2.167,0.637 2.871,1.475c0.715,0.851 1.109,2.04 1.159,3.504c0.008,0.23 0.01,0.632 0.004,0.894l-0.01,0.477l-7.918,0.01l0,0.177c0,0.538 0.131,1.15 0.357,1.671c0.195,0.45 0.53,0.941 0.805,1.178c0.563,0.487 1.253,0.779 2.007,0.849c0.28,0.026 0.993,-0.002 1.312,-0.051c0.909,-0.139 1.774,-0.496 2.472,-1.02c0.082,-0.061 0.161,-0.119 0.175,-0.127c0.02,-0.013 0.025,0.148 0.024,0.824l-0,0.841l-0.187,0.115c-0.79,0.489 -1.695,0.803 -2.653,0.92c-0.286,0.035 -1.335,0.051 -1.677,0.025l-0,-0Zm3.445,-7.089c0,-0.901 -0.38,-1.901 -0.917,-2.417c-0.383,-0.367 -0.847,-0.592 -1.398,-0.677c-0.26,-0.041 -0.81,-0.025 -1.085,0.03c-0.581,0.118 -1.061,0.373 -1.48,0.787c-0.441,0.436 -0.772,0.966 -0.98,1.569c-0.075,0.217 -0.162,0.573 -0.19,0.771l-0.013,0.094l6.063,0l0,-0.157Zm-53.703,6.809c0.005,-0.014 1.349,-3.546 2.988,-7.849l2.979,-7.823l1.914,-0l0.08,0.203c0.242,0.623 5.963,15.476 5.963,15.484c0,0.005 -0.458,0.009 -1.018,0.009l-1.018,-0l-0.825,-2.195l-0.824,-2.196l-3.32,0l-3.321,0l-0.028,0.075c-0.016,0.041 -0.369,1.028 -0.783,2.195l-0.754,2.121l-1.021,-0c-0.808,0 -1.019,-0.005 -1.012,-0.025l0,0.001Zm9.633,-6.042c-0,-0.004 -0.555,-1.508 -1.233,-3.343c-1.269,-3.434 -1.34,-3.64 -1.441,-4.191c-0.047,-0.259 -0.07,-0.266 -0.098,-0.03c-0.02,0.168 -0.107,0.546 -0.173,0.755c-0.033,0.104 -0.605,1.672 -1.27,3.485c-0.665,1.813 -1.21,3.304 -1.21,3.313c0,0.01 1.221,0.017 2.712,0.017c1.492,0 2.713,-0.003 2.713,-0.006l-0,-0Zm4.907,6.066l0,-0.572l3.308,-4.547l3.308,-4.547l-5.99,-0.02l-0.005,-0.76l-0.005,-0.76l8.663,-0l0,0.513l-3.308,4.572c-1.819,2.515 -3.308,4.577 -3.308,4.582c-0,0.005 1.471,0.009 3.268,0.009l3.269,0l-0,1.53l-9.2,0Zm24.274,-0.013c-0.007,-0.007 -0.013,-2.529 -0.013,-5.603l-0,-5.59l1.808,-0l0,1.152c0,0.634 0.008,1.153 0.017,1.153c0.01,-0 0.054,-0.104 0.098,-0.231c0.203,-0.581 0.556,-1.124 1.01,-1.555c0.409,-0.389 0.877,-0.622 1.428,-0.71c0.155,-0.025 0.286,-0.03 0.596,-0.022c0.39,0.01 0.593,0.038 0.83,0.116l0.074,0.024l0,1.877l-0.213,-0.107c-0.377,-0.189 -0.75,-0.264 -1.197,-0.24c-0.292,0.015 -0.483,0.052 -0.716,0.14c-0.479,0.179 -0.867,0.497 -1.139,0.93c-0.393,0.627 -0.673,1.433 -0.756,2.174c-0.015,0.133 -0.024,1.216 -0.027,3.351l-0.005,3.154l-0.891,0c-0.49,0 -0.896,-0.006 -0.904,-0.013l0,0Zm-76.908,-0.039c0,-0.007 1.991,-3.463 4.424,-7.68l4.424,-7.666l5.156,-4.327c2.835,-2.38 5.163,-4.33 5.172,-4.333c0.01,-0.004 -0.028,0.09 -0.083,0.209c-0.055,0.118 -2.574,5.521 -5.598,12.007l-5.498,11.793l-3.998,0.005c-2.2,0.002 -3.999,-0.001 -3.999,-0.008l0,-0Z" style="fill-rule:nonzero;"/></g></g></g></svg>