<?xml version="1.0" encoding="UTF-8" standalone="no"?><!DOCTYPE svg PUBLIC "-//W3C//DTD SVG 1.1//EN" "http://www.w3.org/Graphics/SVG/1.1/DTD/svg11.dtd"><svg width="100%" height="100%" viewBox="0 0 97 48" version="1.1" xmlns="http://www.w3.org/2000/svg" xmlns:xlink="http://www.w3.org/1999/xlink" xml:space="preserve" xmlns:serif="http://www.serif.com/" style="fill-rule:evenodd;clip-rule:evenodd;stroke-linejoin:round;stroke-miterlimit:2;"><g id="_7935ec95c421cee6d86eb22ecd13295e" serif:id="7935ec95c421cee6d86eb22ecd13295e"><g id="Page-1"></g><g id="c133de6af664cd4f011a55de6b001a2b"><path d="M9.428,25.561l6.415,-2.527l0,-0.039l-6.415,-2.546l-0,-2.819l9.798,4.335l-0,2.08l-9.798,4.335l-0,-2.819Zm22.627,3.033l-0,2.527l-11.586,0l-0,-2.527l11.586,-0Zm2.185,-21.771l-26.998,0c-1.485,0 -2.699,1.215 -2.699,2.7l-0,26.998c-0,1.485 1.214,2.699 2.699,2.699l26.998,0c1.485,0 2.7,-1.214 2.7,-2.699l-0,-26.998c-0,-1.485 -1.215,-2.7 -2.7,-2.7Zm0,29.698l-26.998,-0l0,-22.948l26.998,-0l0,22.948Z" style="fill-rule:nonzero;"/><g id="_5151e0c8492e5103c096af88a51f8fd4" serif:id="5151e0c8492e5103c096af88a51f8fd4"><path d="M52.075,35.349c0.691,-0.091 1.208,-0.235 1.551,-0.433c0.553,-0.319 0.989,-0.752 1.307,-1.299c0.319,-0.546 0.478,-1.163 0.478,-1.848c-0,-0.842 -0.224,-1.54 -0.672,-2.096c-0.448,-0.556 -1.146,-0.948 -2.096,-1.177c0.625,-0.216 1.1,-0.51 1.425,-0.883c0.486,-0.559 0.73,-1.229 0.73,-2.011c0,-0.931 -0.341,-1.713 -1.023,-2.344c-0.683,-0.631 -1.661,-0.947 -2.935,-0.947l-7.646,0l0,13.218l7.051,-0c0.3,-0 0.911,-0.06 1.83,-0.18Zm-4.76,-10.36l1.803,-0c0.619,-0 1.053,0.108 1.302,0.324c0.25,0.217 0.375,0.518 0.375,0.902c-0,0.415 -0.125,0.732 -0.375,0.952c-0.249,0.219 -0.692,0.328 -1.329,0.328l-1.776,0l-0,-2.506Zm-0,7.699l-0,-2.677l2.073,-0c0.716,-0 1.216,0.119 1.501,0.356c0.286,0.238 0.429,0.552 0.429,0.942c-0,0.421 -0.144,0.756 -0.433,1.005c-0.289,0.25 -0.785,0.374 -1.488,0.374l-2.082,0Zm12.411,-4.48c0.301,-0.193 0.752,-0.289 1.353,-0.289c0.469,0 0.796,0.091 0.983,0.271c0.186,0.18 0.279,0.495 0.279,0.947c-0.457,0.18 -0.889,0.326 -1.298,0.437c-0.409,0.111 -1.301,0.305 -2.678,0.581c-1.148,0.229 -1.935,0.577 -2.362,1.046c-0.427,0.469 -0.64,1.067 -0.64,1.794c-0,0.776 0.296,1.428 0.888,1.956c0.592,0.53 1.459,0.794 2.601,0.794c0.859,-0 1.614,-0.132 2.263,-0.396c0.475,-0.199 0.953,-0.529 1.434,-0.993c0.042,0.277 0.084,0.48 0.126,0.609c0.042,0.129 0.132,0.317 0.27,0.564l3.444,-0c-0.192,-0.397 -0.317,-0.723 -0.374,-0.979c-0.057,-0.255 -0.086,-0.608 -0.086,-1.059l0,-4.228c0,-0.451 -0.09,-0.925 -0.27,-1.42c-0.18,-0.496 -0.427,-0.879 -0.739,-1.15c-0.445,-0.391 -1.001,-0.647 -1.668,-0.77c-0.667,-0.124 -1.551,-0.186 -2.651,-0.186c-0.685,0 -1.322,0.052 -1.911,0.154c-0.589,0.102 -1.052,0.246 -1.389,0.432c-0.468,0.259 -0.827,0.564 -1.077,0.915c-0.249,0.352 -0.44,0.835 -0.573,1.447l3.508,0.37c0.144,-0.415 0.333,-0.697 0.567,-0.847Zm2.615,3.362c0,0.457 -0.073,0.829 -0.221,1.114c-0.147,0.286 -0.396,0.527 -0.748,0.726c-0.352,0.198 -0.732,0.297 -1.141,0.297c-0.39,0 -0.686,-0.091 -0.888,-0.274c-0.201,-0.184 -0.302,-0.42 -0.302,-0.708c0,-0.253 0.102,-0.478 0.307,-0.677c0.198,-0.192 0.67,-0.387 1.415,-0.585c0.547,-0.139 1.073,-0.298 1.578,-0.479l0,0.586Zm10.416,1.264c0,-0.264 -0.138,-0.468 -0.415,-0.612c-0.198,-0.102 -0.724,-0.228 -1.577,-0.378c-1.274,-0.222 -2.159,-0.428 -2.655,-0.617c-0.496,-0.189 -0.914,-0.509 -1.253,-0.959c-0.34,-0.45 -0.51,-0.964 -0.51,-1.54c0,-0.631 0.183,-1.174 0.55,-1.63c0.367,-0.457 0.871,-0.798 1.515,-1.023c0.643,-0.225 1.505,-0.338 2.587,-0.338c1.142,0 1.985,0.088 2.529,0.262c0.544,0.174 0.998,0.445 1.362,0.811c0.363,0.367 0.665,0.863 0.906,1.488l-3.48,0.342c-0.09,-0.306 -0.241,-0.531 -0.451,-0.675c-0.289,-0.193 -0.637,-0.289 -1.046,-0.289c-0.415,-0 -0.717,0.073 -0.906,0.22c-0.19,0.147 -0.284,0.326 -0.284,0.536c-0,0.235 0.12,0.411 0.361,0.531c0.24,0.12 0.763,0.228 1.568,0.325c1.22,0.138 2.128,0.33 2.723,0.576c0.595,0.246 1.05,0.597 1.366,1.054c0.315,0.456 0.473,0.957 0.473,1.504c0,0.552 -0.166,1.09 -0.5,1.612c-0.334,0.522 -0.86,0.938 -1.578,1.247c-0.718,0.309 -1.696,0.464 -2.935,0.464c-1.749,0 -2.994,-0.249 -3.737,-0.749c-0.742,-0.498 -1.218,-1.207 -1.429,-2.127l3.643,-0.343c0.15,0.433 0.36,0.743 0.631,0.929c0.27,0.186 0.631,0.28 1.082,0.28c0.493,-0 0.874,-0.105 1.145,-0.316c0.21,-0.155 0.315,-0.35 0.315,-0.585Zm13.698,-3.391l0,6.086l-3.687,-0l-0,-5.266c-0,-0.601 -0.111,-1.026 -0.334,-1.275c-0.222,-0.25 -0.534,-0.374 -0.937,-0.374c-0.445,-0 -0.806,0.168 -1.082,0.504c-0.276,0.337 -0.415,0.941 -0.415,1.812l0,4.599l-3.669,-0l-0,-13.218l3.669,0l0,4.869c0.499,-0.517 0.995,-0.886 1.488,-1.109c0.492,-0.222 1.075,-0.334 1.749,-0.334c0.998,0 1.783,0.304 2.357,0.911c0.574,0.607 0.861,1.539 0.861,2.795Zm-43.261,8.104l43.261,0l0,1.803l-43.261,0l0,-1.803Z" style="fill-rule:nonzero;"/></g></g></g></svg>