<?xml version="1.0" encoding="UTF-8" standalone="no"?><!DOCTYPE svg PUBLIC "-//W3C//DTD SVG 1.1//EN" "http://www.w3.org/Graphics/SVG/1.1/DTD/svg11.dtd"><svg width="100%" height="100%" viewBox="0 0 97 48" version="1.1" xmlns="http://www.w3.org/2000/svg" xmlns:xlink="http://www.w3.org/1999/xlink" xml:space="preserve" xmlns:serif="http://www.serif.com/" style="fill-rule:evenodd;clip-rule:evenodd;stroke-linejoin:round;stroke-miterlimit:2;"><g id="_7935ec95c421cee6d86eb22ecd13295e" serif:id="7935ec95c421cee6d86eb22ecd13295e"><g id="Page-1"></g><g id="c133de6af664cd4f011a55de6b001a2b"><path d="M43.979,5.778l-0,1.917l-4.902,-0l0,-5.937l4.902,-0l-0,2.1l-2.801,0l0,1.92l2.801,0Zm5.038,-1.92l1.958,0l0,-2.1l-4.902,-0l0,2.1c0.656,0.656 0.998,0.97 1.947,1.919c-0.555,-0 -1.947,0.002 -1.947,0.001l0,1.917l4.902,-0l0,-1.917l-1.958,-1.92Zm6.948,0l1.957,0l0,-2.1l-4.901,-0l-0,2.1c0.655,0.656 0.997,0.97 1.946,1.919c-0.554,-0 -1.946,0.002 -1.946,0.001l-0,1.917l4.901,-0l0,-1.917l-1.957,-1.92Zm8.413,6.658l-2.977,32.253l-12.901,3.473l-12.901,-3.473l-2.977,-32.253l31.756,0Zm-5.999,6.558l-19.956,0l0.481,3.895l10.123,0l-0.539,0.224l-9.233,3.846l0.306,3.807l8.927,0.029l4.785,0.015l-0.307,5.076l-4.478,1.261l0,-0.004l-0.036,0.01l-4.326,-1.092l-0.262,-3.151l-4.04,0l0.525,6.083l8.139,2.407l0,-0.004l0.015,0.004l8.096,-2.363l1.05,-12.078l-9.183,0l0.022,-0.01l9.497,-4.06l0.394,-3.895Z" style="fill-rule:nonzero;"/></g></g></svg>