<?xml version="1.0" encoding="UTF-8" standalone="no"?><!DOCTYPE svg PUBLIC "-//W3C//DTD SVG 1.1//EN" "http://www.w3.org/Graphics/SVG/1.1/DTD/svg11.dtd"><svg width="100%" height="100%" viewBox="0 0 97 48" version="1.1" xmlns="http://www.w3.org/2000/svg" xmlns:xlink="http://www.w3.org/1999/xlink" xml:space="preserve" xmlns:serif="http://www.serif.com/" style="fill-rule:evenodd;clip-rule:evenodd;stroke-linejoin:round;stroke-miterlimit:2;"><g><path d="M27.958,24.126c-0.659,-0.443 -2.389,-0.633 -3.647,-0.294c-0.067,-1.253 -0.714,-2.309 -1.896,-3.23l-0.437,-0.294l-0.292,0.441c-0.573,0.87 -0.814,2.029 -0.729,3.083c0.068,0.65 0.293,1.379 0.729,1.909c-1.637,0.95 -3.146,0.734 -9.83,0.734l-10.319,0c-0.03,1.51 0.212,4.413 2.058,6.776c0.204,0.261 0.428,0.514 0.67,0.757c1.501,1.503 3.769,2.605 7.16,2.608c5.174,0.005 9.606,-2.792 12.303,-9.553c0.887,0.014 3.229,0.159 4.375,-2.056c0.028,-0.037 0.292,-0.587 0.292,-0.587l-0.437,-0.294l0,-0Zm-19.687,-1.38l-2.902,-0l0,2.902l2.902,-0l0,-2.902Zm3.749,-0l-2.902,-0l-0,2.902l2.902,-0l-0,-2.902Zm3.749,-0l-2.902,-0l-0,2.902l2.902,-0l-0,-2.902Zm3.749,-0l-2.902,-0l-0,2.902l2.902,-0l-0,-2.902Zm-14.996,-0l-2.902,-0l0,2.902l2.902,-0l0,-2.902Zm3.749,-3.665l-2.902,-0l0,2.902l2.902,-0l0,-2.902Zm3.749,-0l-2.902,-0l-0,2.902l2.902,-0l-0,-2.902Zm3.749,-0l-2.902,-0l-0,2.902l2.902,-0l-0,-2.902Zm-0,-3.666l-2.902,0l-0,2.902l2.902,0l-0,-2.902Z" style="fill-rule:nonzero;"/><path d="M94.576,32.163c0,0.756 -0.594,1.35 -1.366,1.35c-0.773,0 -1.375,-0.594 -1.375,-1.35c-0,-0.757 0.61,-1.334 1.375,-1.334c0.765,-0 1.366,0.594 1.366,1.334Zm-2.399,-0c-0,0.594 0.439,1.066 1.041,1.066c0.602,-0 1.017,-0.472 1.017,-1.058c0,-0.585 -0.431,-1.074 -1.024,-1.074c-0.594,0 -1.034,0.48 -1.034,1.066l-0,-0Zm0.822,0.7l-0.309,-0l-0,-1.334c0.121,-0.025 0.292,-0.041 0.512,-0.041c0.252,-0 0.366,0.041 0.463,0.098c0.074,0.057 0.131,0.162 0.131,0.293c-0,0.146 -0.114,0.26 -0.276,0.309l-0,0.016c0.129,0.048 0.203,0.146 0.243,0.325c0.041,0.204 0.065,0.285 0.098,0.334l-0.333,-0c-0.041,-0.049 -0.066,-0.171 -0.106,-0.326c-0.025,-0.146 -0.106,-0.211 -0.277,-0.211l-0.146,-0l-0,0.537l-0,-0Zm0.007,-0.757l0.147,0c0.171,0 0.309,-0.056 0.309,-0.195c-0,-0.122 -0.089,-0.204 -0.285,-0.204c-0.081,0 -0.138,0.009 -0.171,0.017l0,0.382Z" style="fill-rule:nonzero;"/><path d="M42.161,18.662c-0.191,-0.187 -0.421,-0.282 -0.696,-0.282c-0.275,-0 -0.511,0.095 -0.696,0.282c-0.184,0.187 -0.274,0.426 -0.274,0.712l-0,4.769c-0.947,-0.782 -2.039,-1.177 -3.282,-1.177c-1.444,-0 -2.679,0.522 -3.703,1.568c-1.023,1.044 -1.531,2.306 -1.531,3.786c0,1.48 0.512,2.739 1.531,3.786c1.024,1.043 2.255,1.568 3.703,1.568c1.447,0 2.666,-0.521 3.703,-1.568c1.023,-1.033 1.531,-2.295 1.531,-3.786l-0,-8.946c-0,-0.286 -0.094,-0.525 -0.286,-0.712Zm-1.924,10.948l-0,0.007c-0.171,0.406 -0.404,0.762 -0.699,1.065c-0.296,0.307 -0.644,0.546 -1.041,0.726c-0.4,0.18 -0.825,0.268 -1.28,0.268c-0.456,0 -0.891,-0.088 -1.291,-0.268c-0.401,-0.18 -0.745,-0.419 -1.037,-0.722c-0.293,-0.304 -0.525,-0.66 -0.696,-1.065c-0.171,-0.409 -0.258,-0.842 -0.258,-1.301c0,-0.458 0.087,-0.892 0.258,-1.301c0.171,-0.409 0.404,-0.761 0.696,-1.064c0.292,-0.303 0.64,-0.543 1.037,-0.723c0.4,-0.179 0.828,-0.268 1.291,-0.268c0.462,0 0.88,0.089 1.28,0.268c0.4,0.18 0.745,0.42 1.041,0.726c0.295,0.307 0.528,0.663 0.699,1.065c0.171,0.405 0.258,0.835 0.258,1.294c-0,0.458 -0.087,0.891 -0.258,1.293Z" style="fill-rule:nonzero;"/><path d="M85.403,26.265c-0.254,-0.635 -0.641,-1.209 -1.149,-1.724l-0.007,-0.003c-1.034,-1.044 -2.269,-1.569 -3.702,-1.569c-1.434,0 -2.68,0.522 -3.703,1.569c-1.024,1.043 -1.531,2.305 -1.531,3.785c-0,1.481 0.511,2.739 1.531,3.786c1.023,1.043 2.255,1.569 3.703,1.569c1.314,-0 2.452,-0.434 3.42,-1.301c0.188,-0.197 0.282,-0.437 0.282,-0.716c0,-0.279 -0.09,-0.525 -0.275,-0.712c-0.184,-0.187 -0.417,-0.282 -0.696,-0.282c-0.243,0.007 -0.459,0.088 -0.643,0.251c-0.293,0.253 -0.609,0.447 -0.954,0.574c-0.344,0.127 -0.72,0.191 -1.13,0.191c-0.363,-0 -0.711,-0.056 -1.041,-0.173c-0.331,-0.116 -0.64,-0.275 -0.915,-0.483c-0.279,-0.208 -0.519,-0.454 -0.724,-0.747c-0.205,-0.289 -0.362,-0.61 -0.466,-0.962l7.402,-0c0.274,-0 0.504,-0.095 0.696,-0.282c0.191,-0.187 0.285,-0.427 0.285,-0.712c0,-0.74 -0.129,-1.428 -0.382,-2.059l-0.001,0Zm-8.008,1.065c0.101,-0.349 0.254,-0.67 0.46,-0.963c0.205,-0.289 0.448,-0.539 0.727,-0.747c0.282,-0.208 0.588,-0.367 0.925,-0.483c0.337,-0.116 0.682,-0.172 1.038,-0.172c0.355,-0 0.699,0.056 1.032,0.172c0.335,0.116 0.642,0.275 0.916,0.483c0.279,0.208 0.522,0.455 0.727,0.747c0.209,0.29 0.366,0.61 0.474,0.963l-6.299,-0l0,-0Z" style="fill-rule:nonzero;"/><path d="M94.499,23.639c-0.174,-0.173 -0.393,-0.307 -0.658,-0.405c-0.264,-0.099 -0.553,-0.166 -0.87,-0.205c-0.313,-0.039 -0.609,-0.056 -0.883,-0.056c-0.624,-0 -1.208,0.102 -1.758,0.307c-0.55,0.204 -1.058,0.496 -1.524,0.877l-0,-0.19c-0,-0.275 -0.094,-0.508 -0.286,-0.701c-0.191,-0.194 -0.417,-0.293 -0.685,-0.293c-0.267,0 -0.505,0.099 -0.696,0.293c-0.191,0.193 -0.285,0.43 -0.285,0.701l-0,8.717c-0,0.275 0.094,0.508 0.285,0.702c0.191,0.193 0.421,0.292 0.696,0.292c0.275,-0 0.497,-0.099 0.685,-0.292c0.192,-0.194 0.286,-0.431 0.286,-0.702l-0,-4.36c-0,-0.466 0.087,-0.903 0.257,-1.312c0.171,-0.409 0.404,-0.761 0.7,-1.064c0.296,-0.303 0.644,-0.543 1.04,-0.716c0.4,-0.176 0.825,-0.264 1.282,-0.264c0.456,-0 0.886,0.081 1.28,0.239c0.156,0.071 0.292,0.106 0.411,0.106c0.135,0 0.264,-0.024 0.382,-0.077c0.119,-0.053 0.223,-0.124 0.31,-0.215c0.087,-0.092 0.156,-0.197 0.209,-0.321c0.052,-0.12 0.08,-0.25 0.08,-0.391c0,-0.275 -0.087,-0.497 -0.261,-0.67l0.003,-0l0,-0Z" style="fill-rule:nonzero;"/><path d="M53.638,26.269c-0.254,-0.631 -0.634,-1.209 -1.145,-1.731c-1.033,-1.043 -2.269,-1.568 -3.703,-1.568c-1.433,-0 -2.679,0.521 -3.702,1.568c-1.023,1.043 -1.531,2.306 -1.531,3.786c-0,1.48 0.512,2.739 1.531,3.785c1.023,1.044 2.255,1.569 3.702,1.569c1.448,-0 2.666,-0.522 3.703,-1.569c1.023,-1.032 1.531,-2.294 1.531,-3.785c-0.007,-0.74 -0.135,-1.424 -0.386,-2.055l-0,-0Zm-1.824,3.341l0,0.007c-0.17,0.406 -0.403,0.762 -0.699,1.065c-0.295,0.307 -0.644,0.546 -1.04,0.726c-0.397,0.18 -0.825,0.268 -1.281,0.268c-0.456,0 -0.891,-0.088 -1.291,-0.268c-0.4,-0.18 -0.745,-0.419 -1.037,-0.722c-0.292,-0.304 -0.525,-0.66 -0.696,-1.065c-0.17,-0.409 -0.257,-0.842 -0.257,-1.301c-0,-0.458 0.087,-0.892 0.257,-1.301c0.171,-0.409 0.404,-0.761 0.696,-1.064c0.293,-0.303 0.641,-0.543 1.037,-0.723c0.4,-0.179 0.829,-0.268 1.291,-0.268c0.463,0 0.88,0.089 1.281,0.268c0.4,0.18 0.745,0.42 1.04,0.726c0.296,0.307 0.529,0.663 0.699,1.065c0.171,0.405 0.258,0.835 0.258,1.294c0,0.458 -0.087,0.891 -0.258,1.293Z" style="fill-rule:nonzero;"/><path d="M74.572,23.963c0,-0.133 -0.027,-0.261 -0.079,-0.38c-0.053,-0.12 -0.122,-0.229 -0.209,-0.321c-0.087,-0.092 -0.192,-0.166 -0.31,-0.215c-0.118,-0.049 -0.247,-0.077 -0.382,-0.077c-0.195,-0 -0.37,0.049 -0.523,0.151l-5.588,3.719l-0,-7.459c-0,-0.282 -0.094,-0.518 -0.285,-0.712c-0.192,-0.194 -0.418,-0.292 -0.686,-0.292c-0.268,-0 -0.504,0.098 -0.696,0.292c-0.191,0.194 -0.285,0.43 -0.285,0.712l-0,13.289c-0,0.275 0.094,0.511 0.285,0.709c0.191,0.197 0.421,0.296 0.696,0.296c0.275,-0 0.498,-0.099 0.686,-0.296c0.191,-0.198 0.285,-0.434 0.285,-0.709l-0,-3.451l1.141,-0.765l4.319,4.96c0.174,0.172 0.393,0.257 0.654,0.257c0.136,0 0.265,-0.025 0.383,-0.077c0.118,-0.05 0.223,-0.124 0.309,-0.215c0.087,-0.092 0.157,-0.198 0.209,-0.321c0.053,-0.12 0.08,-0.25 0.08,-0.381c0,-0.26 -0.09,-0.493 -0.272,-0.697l-4.019,-4.628l3.915,-2.602c0.25,-0.172 0.372,-0.437 0.372,-0.793l0,0.007l0,-0.001Z" style="fill-rule:nonzero;"/><path d="M58.026,25.948c0.299,-0.303 0.648,-0.543 1.048,-0.716c0.4,-0.176 0.825,-0.264 1.28,-0.264c0.411,-0 0.79,0.071 1.142,0.211c0.348,0.141 0.682,0.349 0.999,0.62c0.187,0.152 0.4,0.229 0.636,0.229c0.282,0 0.512,-0.095 0.696,-0.285c0.185,-0.191 0.275,-0.43 0.275,-0.716c0,-0.286 -0.111,-0.55 -0.337,-0.754c-0.961,-0.867 -2.098,-1.301 -3.411,-1.301c-1.444,-0 -2.679,0.522 -3.702,1.568c-1.023,1.044 -1.531,2.306 -1.531,3.786c-0,1.48 0.512,2.739 1.531,3.786c1.023,1.043 2.255,1.568 3.702,1.568c1.309,0 2.447,-0.433 3.411,-1.301c0.205,-0.211 0.31,-0.454 0.31,-0.736c-0,-0.282 -0.091,-0.525 -0.275,-0.712c-0.185,-0.187 -0.418,-0.282 -0.696,-0.282c-0.236,0.007 -0.442,0.077 -0.616,0.211c-0.313,0.275 -0.64,0.479 -0.992,0.617c-0.348,0.137 -0.727,0.204 -1.141,0.204c-0.456,0 -0.88,-0.088 -1.281,-0.264c-0.4,-0.176 -0.748,-0.416 -1.047,-0.716c-0.3,-0.299 -0.536,-0.659 -0.707,-1.064c-0.17,-0.409 -0.258,-0.846 -0.258,-1.311c0,-0.466 0.088,-0.903 0.258,-1.312c0.171,-0.409 0.407,-0.761 0.707,-1.064l-0,-0.004l-0.001,0.002Z" style="fill-rule:nonzero;"/></g></svg>