<?xml version="1.0" encoding="UTF-8" standalone="no"?><!DOCTYPE svg PUBLIC "-//W3C//DTD SVG 1.1//EN" "http://www.w3.org/Graphics/SVG/1.1/DTD/svg11.dtd"><svg width="100%" height="100%" viewBox="0 0 97 48" version="1.1" xmlns="http://www.w3.org/2000/svg" xmlns:xlink="http://www.w3.org/1999/xlink" xml:space="preserve" xmlns:serif="http://www.serif.com/" style="fill-rule:evenodd;clip-rule:evenodd;stroke-linecap:round;stroke-linejoin:round;"><g id="_7935ec95c421cee6d86eb22ecd13295e" serif:id="7935ec95c421cee6d86eb22ecd13295e"><g id="Page-1"></g><g id="c133de6af664cd4f011a55de6b001a2b"><g id="_5151e0c8492e5103c096af88a51f8fd4" serif:id="5151e0c8492e5103c096af88a51f8fd4"><path d="M46.341,44.227l-0,-5.752l0.075,-4.088c0.091,-1.271 0.587,-2.47 1.402,-3.397c0.012,-0.014 0.024,-0.028 0.036,-0.041c0.031,-0.035 0.011,-0.092 -0.036,-0.098c-5.447,-0.68 -11.122,-2.979 -11.122,-12.992c-0.035,-2.466 0.769,-4.857 2.256,-6.732c0.052,-0.066 0.105,-0.131 0.159,-0.195c0.07,-0.084 0.093,-0.197 0.061,-0.301c-0.002,-0.007 -0.004,-0.013 -0.006,-0.019c-0.036,-0.119 -0.07,-0.239 -0.102,-0.359c-0.547,-2.064 -0.429,-4.269 0.34,-6.259c0.006,-0.015 0.011,-0.03 0.017,-0.044c0.029,-0.074 0.089,-0.13 0.167,-0.143c0.483,-0.086 2.434,-0.202 6.171,2.379c0.116,0.08 0.234,0.163 0.354,0.248c0.087,0.062 0.197,0.081 0.299,0.052c0.003,-0.001 0.006,-0.002 0.01,-0.003c0.2,-0.057 0.401,-0.111 0.603,-0.162c3.552,-0.902 7.253,-0.902 10.805,0c0.191,0.049 0.381,0.1 0.572,0.154c0.004,0.001 0.008,0.002 0.012,0.003c0.12,0.034 0.25,0.012 0.351,-0.061c0.112,-0.079 0.222,-0.156 0.33,-0.231c3.728,-2.575 5.669,-2.466 6.154,-2.38c0.079,0.014 0.141,0.071 0.171,0.146c0.003,0.009 0.007,0.019 0.011,0.028c0.782,1.991 0.906,4.203 0.359,6.273c-0.032,0.123 -0.067,0.246 -0.105,0.369c-0.033,0.11 -0.009,0.229 0.065,0.318c0.002,0.002 0.004,0.005 0.007,0.008c0.049,0.059 0.097,0.119 0.145,0.179c1.487,1.875 2.292,4.266 2.256,6.732c0,10.067 -5.715,12.307 -11.188,12.917c-0.032,0.003 -0.046,0.041 -0.024,0.065c0.008,0.009 0.016,0.018 0.024,0.027c0.552,0.615 0.981,1.345 1.258,2.145c0.29,0.836 0.408,1.729 0.346,2.618l0,8.596" style="fill:none;fill-rule:nonzero;stroke:#000;stroke-width:4.49px;"/><path d="M34.448,35.151c0.829,0.118 1.621,0.423 2.316,0.893c0.695,0.471 1.274,1.093 1.693,1.822c0.356,0.648 0.836,1.219 1.413,1.68c0.577,0.462 1.239,0.805 1.948,1.009c0.709,0.204 1.451,0.265 2.184,0.181c0.733,-0.084 1.442,-0.313 2.086,-0.673" style="fill:none;fill-rule:nonzero;stroke:#000;stroke-width:4.49px;"/></g></g></g></svg>