<?xml version="1.0" encoding="UTF-8" standalone="no"?><!DOCTYPE svg PUBLIC "-//W3C//DTD SVG 1.1//EN" "http://www.w3.org/Graphics/SVG/1.1/DTD/svg11.dtd"><svg width="100%" height="100%" viewBox="0 0 97 48" version="1.1" xmlns="http://www.w3.org/2000/svg" xmlns:xlink="http://www.w3.org/1999/xlink" xml:space="preserve" xmlns:serif="http://www.serif.com/" style="fill-rule:evenodd;clip-rule:evenodd;stroke-linejoin:round;stroke-miterlimit:2;"><g id="_7935ec95c421cee6d86eb22ecd13295e" serif:id="7935ec95c421cee6d86eb22ecd13295e"><g id="Page-1"><path d="M35.751,1.891l1.993,-0l0,1.969l1.823,0l0,-1.969l1.993,-0l0,5.963l-1.993,-0l0,-1.997l-1.823,0l0,1.997l-1.993,-0l0,-5.963l0,-0Zm8.43,1.977l-1.754,0l-0,-1.977l5.503,-0l-0,1.977l-1.756,0l0,3.986l-1.993,-0l0,-3.986Zm4.622,-1.977l2.079,-0l1.278,2.095l1.277,-2.095l2.079,-0l-0,5.963l-1.985,-0l-0,-2.956l-1.371,2.12l-0.034,0l-1.373,-2.12l0,2.956l-1.95,-0l0,-5.963Zm7.705,-0l1.993,-0l0,3.992l2.803,0l0,1.971l-4.796,-0l-0,-5.963Zm-23.671,8.69l2.85,31.977l12.794,3.551l12.829,-3.556l2.853,-31.972l-31.326,-0l-0,0Zm25.38,7.588l-0.179,1.989l-0.078,0.881l-15.008,0l0.359,4.016l14.292,0l-0.096,1.053l-0.922,10.325l-0.059,0.663l-8.026,2.224l0,0.001l-0.018,0.005l-8.034,-2.23l-0.549,-6.158l3.937,-0l0.279,3.128l4.368,1.179l0.003,-0.001l0,-0l4.375,-1.18l0.455,-5.087l-13.592,0l-0.964,-10.808l-0.094,-1.052l19.645,0l-0.094,1.052Z" style="fill-rule:nonzero;"/></g></g></svg>