<svg viewBox="0 0 175 48" width="175" height="48" class="h-full w-auto" xmlns="http://www.w3.org/2000/svg" fill="currentColor"><g fill="current" transform="translate(3 7)"><path d="m56.6548259 25.3816928c-4.1385107 0-7.493381-3.4354677-7.493381-7.6740785 0-4.2375322 3.3548703-7.6729999 7.493381-7.6729999s7.4930223 3.4354677 7.4930223 7.6729999c0 4.2386108-3.3545116 7.6740785-7.4930223 7.6740785zm7.5167037.9731908c.1033371 1.1773918 1.0441361 2.6765442 2.6742084 2.6765442h.9537161c.3695739 0 .6727681-.3034255.6727681-.6737198v-20.9992784h-.0043057c-.0190169-.35375682-.311088-.6374094-.6684624-.6374094h-2.9551564c-.3573744 0-.6494455.28365258-.66918.6374094h-.0035881v1.70622957c-1.8109123-2.23434825-4.665602-3.16188139-7.5281855-3.16188139-6.5070133 0-11.782233 5.28514132-11.782233 11.80483652 0 6.5204142 5.2752197 11.8055555 11.782233 11.8055555v.0007191c2.8625835 0 5.9824335-1.1130398 7.5278267-3.1618814zm40.8858944-.9731908c-4.138215 0-7.4934948-3.4354677-7.4934948-7.6740785 0-4.2375322 3.3552798-7.6729999 7.4934948-7.6729999 4.138574 0 7.493136 3.4354677 7.493136 7.6729999 0 4.2386108-3.354562 7.6740785-7.493136 7.6740785zm7.516818.9731908c.103339 1.1773918 1.044152 2.6765442 2.674249 2.6765442h.954089c.36958 0 .67242-.3034255.67242-.6737198v-20.9992784h-.003947c-.019376-.35375682-.311452-.6374094-.668473-.6374094h-2.95556c-.357379 0-.649096.28365258-.66919.6374094h-.003588v1.70622957c-1.81094-2.23434825-4.665673-3.16188139-7.5283-3.16188139-6.5071121 0-11.7820531 5.28514132-11.7820531 11.80483652 0 6.5204142 5.274941 11.8055555 11.7820531 11.8055555v.0007191c2.862627 0 5.982524-1.1130398 7.527941-3.1618814z"></path><path d="m158.204594 25.1860427c-4.064988 0-7.359971-3.3675788-7.359971-7.5224295 0-4.1537935 3.294983-7.5213723 7.359971-7.5213723 4.064282 0 7.358914 3.3675788 7.358914 7.5213723 0 4.1548507-3.294632 7.5224295-7.358914 7.5224295zm7.382172.9539594c.101493 1.1541251 1.025498 2.6236526 2.626472 2.6236526h.937044c.362977 0 .660759-.2974295.660759-.6604063v-20.58430769h-.004229c-.01903-.34676617-.305535-.62481343-.65653-.62481343h-2.902757c-.350995 0-.6375.27804726-.656882.62481343h-.003877v1.67251244c-1.778234-2.19019486-4.581965-3.09939884-7.393449-3.09939884-6.391211 0-11.571912 5.18070069-11.571912 11.57155889 0 6.3915631 5.180701 11.5722637 11.571912 11.5722637v.0007048c2.811484 0 5.875642-1.0910448 7.393097-3.0993989z"></path><path d="m142.84652 26.386958-.001406-10.5372015h.000352c0-5.93987885-3.776327-9.94697872-9.798285-9.94697872-2.874492 0-5.504816 1.63540156-6.063061 3.06650865-.179876-1.10793139-.772903-2.27268871-2.611003-2.27268871h-.936967c-.36221 0-.658372.29458842-.658372.65367254v18.38754724.002789 1.9390543.0359084h.003864c.018621.3423501.304945.6177641.654859.6177641h1.959657.933805c.044266 0 .08783-.0052294.129637-.0135963.019322-.0034863.037239-.0108074.055859-.0160368.021431-.0066239.043916-.0118532.064292-.0202203.025646-.0104588.049184-.0247524.073074-.0380002.011594-.0069725.024242-.0122019.035484-.019523.028808-.0184771.055157-.0407891.080803-.0634498.004216-.0041835.009486-.0069726.01335-.0108074.028808-.0275414.055157-.0578717.078344-.0895967l.000352-.0006972c.072371-.0986611.116286-.2175423.123664-.3458364h.003513v-.0359084-1.2923542-.3395612-10.3614942c0-3.189922 2.606435-5.77637355 5.821706-5.77637355 3.214919 0 5.821355 2.58645155 5.821355 5.77637355l.002809 10.054704.000703-.0031377c0 .0087157.001406.01778.001406.0275414v1.9143019.0359084h.003513c.019322.3423501.305295.6177641.65521.6177641h1.958603.934859c.044618 0 .08783-.0052294.129637-.0135963.017215-.0031377.033024-.0097615.049887-.0146423.023539-.0066239.047779-.0125505.070615-.0216148.023539-.0097616.04532-.0230093.067453-.0359084.013702-.0073212.028106-.0128992.041105-.0216148.027051-.0174312.051293-.0383488.075182-.059615.006323-.0052293.012999-.0094128.018972-.0153394.027402-.0261469.051643-.0543856.074128-.0843673.001757-.0020919.003512-.0038349.005269-.0059267.071318-.0979638.114882-.2157991.122259-.3433959 0-.0010459.000352-.0017432.000352-.0017432h.003864v-.0359084-1.2923542zm-68.0938885-3.0398982c2.019354 1.3696875 4.2238214 2.0343993 6.3423435 2.0343993 2.0178847 0 4.103718-1.0238504 4.103718-2.8062416 0-2.3795174-4.5459338-2.7498003-7.4019717-3.6999536-2.8567726-.9501533-5.3172404-2.9140909-5.3172404-6.095289 0-4.86688419 4.4306051-6.87719712 8.5662773-6.87719712 2.6202386 0 5.3234843.84589884 7.0761866 2.05704768.6038228.44757504.2361667.96201671.2361667.96201671l-1.6733679 2.33853463c-.1876845.2635121-.5167754.4914338-.9887415.2059924-.4719662-.285082-2.1273369-1.4318807-4.6502439-1.4318807-2.5232742 0-4.0431154 1.1406873-4.0431154 2.5542334 0 1.6950333 1.9752793 2.2281688 4.2891989 2.8058822 4.0317296 1.0637547 8.4303805 2.3424891 8.4303805 7.1806134 0 4.288452-4.0982087 6.9386714-8.6272472 6.9386714-3.4326815 0-6.3548314-.9577027-8.8057497-2.7181646-.5108988-.5000617-.1542613-.9645331-.1542613-.9645331l1.6649202-2.3270307c.3386404-.4349926.7657972-.2832845.9527473-.1571007z"></path><path d="m27.1527778 8.26333583c0 4.56415467-3.6997975 8.26444197-8.2638889 8.26444197s-8.2638889-3.7002873-8.2638889-8.26444197c0-4.56304855 3.6997975-8.26333583 8.2638889-8.26333583s8.2638889 3.70028728 8.2638889 8.26333583"></path><path d="m8.23160463 17.773563c-4.54624074 0-8.2315679 3.6845926-8.2315679 8.2308333 0 4.5462408 3.68532716 8.2319352 8.2315679 8.2319352 4.54624077 0 8.23193527-3.6856944 8.23193527-8.2319352 0-4.5462407-3.6856945-8.2308333-8.23193527-8.2308333"></path><path d="m29.3846129 17.7727549c-4.4470501 0-8.0526208 3.6853272-8.0526208 8.2319352 0 4.5458734 3.6055707 8.2315679 8.0526208 8.2315679 4.4474094 0 8.0529801-3.6856945 8.0529801-8.2315679 0-4.546608-3.6055707-8.2319352-8.0529801-8.2319352"></path></g></svg>
