<?xml version="1.0" ?><!-- Uploaded to: SVG Repo, www.svgrepo.com, Generator: SVG Repo Mixer Tools -->
<svg fill="#050A10" width="20px" height="20px" viewBox="0 0 100 100" enable-background="new 0 0 100 100" id="Layer_1" version="1.1" xml:space="preserve" xmlns="http://www.w3.org/2000/svg" xmlns:xlink="http://www.w3.org/1999/xlink"><path d="M66.958,54.602c-1.821-1.821-4.786-1.821-6.608,0l-0.066,0.066l-1.298-1.298l12.849-12.848  c6.649,2.043,13.76,0.297,18.692-4.635c4.337-4.337,6.27-10.528,5.17-16.56c-0.067-0.366-0.331-0.665-0.686-0.775  c-0.354-0.111-0.741-0.015-1.005,0.248l-8.954,8.953l-11.038-1.767l-1.767-11.038L81.2,5.994c0.263-0.263,0.358-0.65,0.248-1.005  s-0.409-0.619-0.775-0.686c-6.031-1.098-12.223,0.833-16.56,5.17c-4.932,4.932-6.679,12.042-4.635,18.692L46.63,41.015  L19.821,14.206c-0.101-0.101-0.223-0.179-0.356-0.229l-6.717-2.516c-0.368-0.137-0.781-0.048-1.058,0.229  c-0.277,0.277-0.367,0.691-0.229,1.058l2.516,6.717c0.05,0.134,0.128,0.255,0.229,0.356L41.015,46.63L28.166,59.478  c-6.65-2.044-13.761-0.296-18.692,4.635c-4.338,4.337-6.271,10.528-5.171,16.56c0.067,0.366,0.331,0.665,0.686,0.775  c0.355,0.112,0.742,0.016,1.005-0.248l8.954-8.953l11.038,1.767l1.767,11.038L18.8,94.006c-0.263,0.263-0.358,0.65-0.248,1.005  s0.409,0.619,0.775,0.686C20.442,95.9,21.563,96,22.676,96c4.909,0,9.676-1.938,13.211-5.474c4.932-4.931,6.679-12.042,4.635-18.692  L53.37,58.985l1.298,1.298l-0.066,0.066c-1.822,1.822-1.822,4.786,0,6.608L78.84,91.195c0.906,0.906,2.096,1.358,3.288,1.358  c1.197,0,2.396-0.457,3.309-1.37l5.748-5.748c1.822-1.822,1.827-4.781,0.011-6.596L66.958,54.602z M63.693,73.221l1.941-1.941  l8.877,8.877l-1.941,1.941L63.693,73.221z M71.806,62.28l-2.647,2.647l-4.232,4.232l-2.647,2.647l-2.818-2.818l9.526-9.526  L71.806,62.28z M69.866,67.048l8.877,8.877l-2.818,2.818l-8.877-8.877L69.866,67.048z M73.985,83.511l2.647-2.647l4.232-4.232  l2.647-2.647l2.818,2.818l-9.526,9.526L73.985,83.511z M80.157,74.511l-8.877-8.877l1.941-1.941l8.877,8.878L80.157,74.511z   M61.326,29.147c0.27-0.27,0.363-0.67,0.239-1.032c-2.091-6.091-0.573-12.692,3.962-17.228c3.4-3.399,8.075-5.144,12.808-4.856  l-7.863,7.863c-0.227,0.227-0.331,0.548-0.28,0.865l1.962,12.257c0.068,0.426,0.403,0.761,0.829,0.829l12.257,1.962  c0.316,0.051,0.638-0.054,0.865-0.28l7.863-7.863c0.289,4.734-1.457,9.409-4.856,12.808c-4.535,4.536-11.136,6.054-17.228,3.962  c-0.363-0.126-0.763-0.032-1.032,0.239L57.571,51.956l-2.822-2.822l10.246-10.246c0.519-0.518,0.804-1.208,0.804-1.942  s-0.286-1.424-0.803-1.942c-1.036-1.036-2.849-1.036-3.884,0L50.866,45.25l-2.822-2.822L61.326,29.147z M52.28,46.665l10.247-10.246  c0.28-0.281,0.774-0.282,1.055,0c0.141,0.14,0.218,0.328,0.218,0.527s-0.077,0.387-0.218,0.527c0,0,0,0,0,0L53.335,47.72  L52.28,46.665z M38.674,70.853c-0.27,0.27-0.363,0.67-0.239,1.032c2.091,6.091,0.573,12.692-3.962,17.227  c-3.399,3.399-8.069,5.146-12.808,4.857l7.863-7.863c0.227-0.227,0.331-0.548,0.28-0.865l-1.962-12.257  c-0.068-0.426-0.403-0.761-0.829-0.829L14.76,70.192c-0.317-0.053-0.639,0.053-0.865,0.28l-7.863,7.863  c-0.289-4.734,1.457-9.409,4.857-12.808c4.536-4.535,11.138-6.052,17.227-3.962c0.361,0.123,0.761,0.031,1.032-0.239l13.282-13.282  l2.822,2.822L35.004,61.111c-0.518,0.518-0.804,1.208-0.804,1.942s0.286,1.424,0.803,1.942c0.518,0.518,1.208,0.804,1.942,0.804  s1.424-0.286,1.942-0.804L49.134,54.75l2.822,2.822L38.674,70.853z M47.72,53.335L37.474,63.582c-0.28,0.281-0.774,0.282-1.055,0  c-0.141-0.14-0.218-0.328-0.218-0.527s0.077-0.387,0.218-0.528L46.665,52.28L47.72,53.335z M54.077,56.864l-4.236-4.236l-2.47-2.47  l-4.236-4.236L15.773,18.561l-1.669-4.456l4.456,1.669l27.362,27.362l4.236,4.236l2.47,2.47l4.236,4.236l2.005,2.005l-2.787,2.787  L54.077,56.864z M56.016,61.764l0.773-0.773l4.201-4.201l0.773-0.773c0.521-0.521,1.206-0.781,1.89-0.781  c0.685,0,1.369,0.26,1.89,0.781l2.031,2.031l-9.528,9.528l-2.031-2.031C54.974,64.502,54.974,62.806,56.016,61.764z M89.77,84.022  l-5.748,5.748c-0.505,0.505-1.175,0.784-1.887,0.786c-0.708,0.007-1.379-0.273-1.881-0.775l-2.037-2.037l9.527-9.527l2.037,2.037  c0.502,0.502,0.777,1.17,0.775,1.881C90.554,82.847,90.275,83.517,89.77,84.022z"/></svg>
