<svg fill="currentColor" viewBox="0 0 175 48" width="175" height="48" class="h-full w-auto" xmlns="http://www.w3.org/2000/svg"><g fill="current"><path d="m37.6816794 0h-32.06106871c-2.9509542 0-5.34351145 2.39255725-5.34351145 5.34351145v32.06106875c0 2.9509542 2.39255725 5.3435114 5.34351145 5.3435114h32.06106871c2.9509542 0 5.3435114-2.3925572 5.3435114-5.3435114v-32.06106875c0-2.9509542-2.3925572-5.34351145-5.3435114-5.34351145zm-10.3316794 7.83759542c0-.78683206.6385496-1.42538168 1.4253817-1.42538168.786832 0 1.4253817.63854962 1.4253817 1.42538168v19.03759538c0 .7868321-.6385497 1.4253817-1.4253817 1.4253817-.7868321 0-1.4253817-.6385496-1.4253817-1.4253817zm-7.1242366-.72137405c0-.78683206.6385496-1.42538168 1.4253816-1.42538168.7868321 0 1.4253817.63854962 1.4253817 1.42538168v20.66202293c0 .786832-.6385496 1.4253817-1.4253817 1.4253817-.786832 0-1.4253816-.6385497-1.4253816-1.4253817zm-7.1242367.72137405c0-.78683206.6385496-1.42538168 1.4253817-1.42538168s1.4240458.63854962 1.4240458 1.42538168v19.03759538c0 .7868321-.6372137 1.4253817-1.4240458 1.4253817s-1.4253817-.6385496-1.4253817-1.4253817zm-7.12423662 2.84942748c0-.78683206.63721374-1.42538168 1.4240458-1.42538168s1.42538168.63854962 1.42538168 1.42538168v12.8164122c0 .7868321-.63854962 1.4253817-1.42538168 1.4253817s-1.4240458-.6385496-1.4240458-1.4253817zm30.85076332 21.7347328c-.2190839.1896947-5.4984732 4.6181298-15.1769084 4.6181298-9.6784351 0-14.95515263-4.4284351-15.17690836-4.6181298-.5971374-.5116412-.66793893-1.410687-.15496183-2.0091603.51030534-.5958015 1.40801527-.666603 2.00515267-.1562977.08282443.0694657 4.79713742 3.9341603 13.32538172 3.9341603 8.6351145 0 13.2759542-3.8927481 13.321374-3.9314885.5958015-.5129771 1.4975191-.4435115 2.0078244.1536259.5156489.5984733.4461832 1.4975191-.1509542 2.0091603zm.4969466-8.9183206c0 .7868321-.6385496 1.4253817-1.4253817 1.4253817-.786832 0-1.4240458-.6385496-1.4240458-1.4253817v-12.8164122c0-.78683206.6372138-1.42538168 1.4240458-1.42538168.7868321 0 1.4253817.63854962 1.4253817 1.42538168z" transform="translate(1 3)"></path><g transform="translate(57.442748 16.358779)"><path d="m3.54007634 14.1950382c0 .7133587-.54503817 1.2998091-1.32118321 1.2998091-.75477099 0-1.29980916-.5877862-1.29980916-1.2998091v-12.39293896c0-.71335878.54503817-1.29980916 1.32118321-1.29980916.75477099 0 1.29980916.58778626 1.29980916 1.29980916z"></path><path d="m20.4830153 1.80209924v11.32423666c0 1.530916-.8175573 2.3912214-2.1173664 2.3912214h-.1041985c-1.2370229 0-1.8248092-.7133588-2.3484733-1.7620229l-2.6423664-5.13778631-2.3484733-5.30477099.0627863 5.13778626.021374 5.72423664c0 .7133588-.5450382 1.2998092-1.3211832 1.2998092-.75477099 0-1.29980916-.5877863-1.29980916-1.2998092v-11.32423664c0-1.40534351.81755726-2.39122137 2.24427486-2.39122137h.1041984c1.3211832 0 1.8662214.71335877 2.3912214 1.7620229l2.5996183 5.09637404 2.2229008 4.94942747-.0627863-4.73969464-.021374-5.72423665c0-.71335877.5450381-1.29980916 1.3211832-1.29980916.7534351-.00133587 1.2984733.58511451 1.2984733 1.29847329z"></path><path d="m30.9896947 14.175c0 .7133588-.5450382 1.2998092-1.3211832 1.2998092-.754771 0-1.2998092-.5877863-1.2998092-1.2998092v-11.21870229h-3.2501908c-.6706107 0-1.2156489-.50362595-1.2156489-1.2370229 0-.71335878.5450382-1.21564886 1.2156489-1.21564886h9.121374c.6706107 0 1.2156489.50362596 1.2156489 1.2370229 0 .71335878-.5450382 1.21564886-1.2156489 1.21564886h-3.2501908z"></path><path d="m38.8740458 13.7555344v-11.63816799c0-1.09007633.6078244-1.69790076 1.7192748-1.65648855h7.5490458c.6706107 0 1.2156489.52366413 1.2156489 1.2370229 0 .71335878-.5450382 1.21564886-1.2156489 1.21564886h-6.6687023v3.60687023h5.8925573c.6505725 0 1.1742366.48225191 1.1742366 1.17423664s-.5236641 1.17423664-1.1742366 1.17423664h-5.8925573v4.15190837h6.6687023c.6706107 0 1.2156489.5236641 1.2156489 1.2370229s-.5450382 1.2156511-1.2156489 1.2156511h-7.611832c-1.0900764.0013337-1.6979008-.6064908-1.6564886-1.7179411z"></path><path d="m64.2477099 13.7755725c.3566794.6078244.1255725 1.3839695-.6078244 1.7620229-.7133588.3566794-1.4895038.0841603-1.8448473-.5236641l-2.9148855-5.3889313h-2.767939l.0213741 4.571374c0 .7133588-.5450382 1.2998092-1.3211832 1.2998092-.754771 0-1.2998092-.5877863-1.2998092-1.2998092v-12.07900759c0-1.09007633.6078244-1.69790076 1.7192748-1.65648855h4.9694657c3.4185114 0 4.8438931 2.22290077 4.8438931 4.48721374 0 2.16011451-1.2583969 3.7538168-3.4185114 4.17328245zm-8.136832-6.52175571h4.1519084c1.4053435 0 2.1387404-.90171755 2.1387404-2.18148855 0-1.27977099-.776145-2.1601145-2.1601145-2.1601145h-4.1305343z"></path><path d="m70.4541985 14.3633588c-1.5723283-1.4053435-2.285687-3.6068703-2.285687-6.37480918 0-2.78931298.6919847-4.96946565 2.2442748-6.35343512.9645038-.83893129 2.2643129-1.40534351 4.1519084-1.40534351 1.6564885 0 2.9362595.37805344 3.9007633 1.19561069.8389313.67061069 1.4467557 1.61507634 1.8034351 2.93625954.1883588.69198473-.2938931 1.38396947-1.0900763 1.53091603-.754771.12557252-1.3625954-.35667939-1.5937023-1.04866412-.251145-.67061069-.5877863-1.1528626-.9858779-1.48950382-.5450381-.48225191-1.2156488-.69198473-2.0973282-.69198473-.9431298 0-1.7620229.27251908-2.3698473.88034351-.8803435.88034351-1.258397 2.45400764-1.258397 4.44580153 0 1.97175572.3566794 3.54408398 1.279771 4.42442748.6078244.6078244 1.4053435.8803435 2.3270993.8803435.9645038 0 1.6979007-.251145 2.307061-.8175572.3139313-.2938932.5877863-.6706107.7761451-1.1114504.272519-.6505725.8389313-1.1328245 1.5723282-.9645038.7333969.1683206 1.1956107.8803435.9645038 1.5723282-.3780534 1.1528626-1.0272901 2.0759542-1.9076336 2.7051527-.9645038.6919847-2.1601145 1.0486641-3.6696565 1.0486641-1.9290076 0-3.1459923-.5664122-4.0690839-1.3625954z"></path><path d="m83.2251908 7.98854962c0-4.69694657 1.9290077-7.75877863 6.4803436-7.75877863 4.5085877 0 6.4589694 2.97767176 6.4589694 7.75877863 0 4.84389308-1.9717557 7.75877858-6.4589694 7.75877858-4.5713741 0-6.4803436-2.9148855-6.4803436-7.75877858zm10.2541985 0c0-3.56545802-1.2998091-5.30477099-3.795229-5.30477099-2.4540076 0-3.7538168 1.74064885-3.7538168 5.30477099 0 3.56545798 1.258397 5.30477098 3.7538168 5.30477098 2.4740458 0 3.795229-1.7406488 3.795229-5.30477098z"></path><path d="m116.50458 14.175c0 .7133588-.545038 1.2998092-1.321183 1.2998092-.754771 0-1.299809-.5877863-1.299809-1.2998092v-5.62003817l.062786-5.4730916-1.824809 5.55725191-1.844847 5.47309156c-.313932.9645039-.964504 1.3425573-1.782062 1.3425573-.860305 0-1.489503-.3980916-1.824809-1.3625954l-1.887595-5.45171758-1.740649-5.47309161.062786 5.3889313v5.62003819c0 .7133588-.545038 1.2998091-1.321183 1.2998091-.754771 0-1.299809-.5877862-1.299809-1.2998091v-11.21870231c0-1.55229008.838931-2.45400764 2.307061-2.45400764 1.383969 0 2.160115.73339695 2.599618 2.0759542l1.929008 5.72423664 1.174237 3.90076341 1.19561-3.90076341 1.929008-5.72423664c.44084-1.34255725 1.195611-2.0759542 2.57958-2.0759542 1.46813 0 2.285687.88034352 2.285687 2.45400764z"></path></g></g></svg>
