<svg viewBox="0 0 106 31" fill="currentColor" xmlns="http://www.w3.org/2000/svg" width="106" height="31" class="h-full w-auto"><g clip-path="url(#clip-hubspot-mono)"><path d="M11.5651 5.62866V14.0394H3.8408V5.62866H0.173584V25.7058H3.8408V17.5682H11.5651V25.7058H15.2323V5.62866H11.5651Z"></path><path d="M26.9691 19.2163C26.9691 20.0209 26.6495 20.7926 26.0805 21.3616C25.5116 21.9305 24.7399 22.2502 23.9353 22.2502C23.1306 22.2502 22.359 21.9305 21.79 21.3616C21.221 20.7926 20.9014 20.0209 20.9014 19.2163V10.6169H17.4229V19.2163C17.4229 20.9418 18.1083 22.5967 19.3285 23.8168C20.5486 25.037 22.2034 25.7224 23.929 25.7224C25.6545 25.7224 27.3094 25.037 28.5295 23.8168C29.7496 22.5967 30.4351 20.9418 30.4351 19.2163V10.6169H26.9691V19.2163Z"></path><path d="M52.7417 11.5023C52.7417 9.73968 53.9078 9.18088 55.1853 9.18088C56.2148 9.18088 57.575 9.96428 58.4644 10.9148L60.7427 8.23039C59.6053 6.69235 57.2983 5.62866 55.4099 5.62866C51.6367 5.62866 48.9074 7.83869 48.9074 11.5023C48.9074 18.2995 57.2156 16.1434 57.2156 19.9472C57.2156 21.1204 56.0765 22.1572 54.772 22.1572C52.7147 22.1572 52.0481 21.151 51.103 20.0873L48.575 22.716C50.192 24.7014 52.1865 25.7094 54.5762 25.7094C58.1607 25.7094 61.0446 23.4724 61.0446 19.9759C61.0446 12.4295 52.7363 14.7742 52.7363 11.5023"></path><path d="M104.141 22.4985C102.085 22.4985 101.501 21.6091 101.501 20.2471V14.219H104.696V11.1644H101.501V7.13428L97.9741 8.71724V20.9964C97.9741 24.1372 100.141 25.7201 103.113 25.7201C103.579 25.7286 104.045 25.6913 104.504 25.6087L105.364 22.441C104.976 22.4679 104.531 22.4949 104.141 22.4949"></path><path d="M40.2095 10.7176C38.4864 10.7176 37.2844 11.2171 36.1219 12.358V5.74951H32.6379V17.9981C32.6379 22.5835 35.953 25.7242 39.6777 25.7242C43.8103 25.7242 47.4452 22.5278 47.4452 18.2227C47.4452 13.9715 44.0996 10.7194 40.2095 10.7194V10.7176ZM40.188 22.2187C39.4062 22.2187 38.6419 21.9869 37.9919 21.5526C37.3418 21.1182 36.8352 20.5008 36.536 19.7785C36.2368 19.0563 36.1585 18.2615 36.311 17.4947C36.4636 16.7279 36.84 16.0235 37.3929 15.4707C37.9457 14.9179 38.65 14.5414 39.4168 14.3889C40.1836 14.2364 40.9784 14.3146 41.7007 14.6138C42.423 14.913 43.0404 15.4197 43.4747 16.0697C43.9091 16.7198 44.1409 17.484 44.1409 18.2658C44.1409 19.3142 43.7244 20.3196 42.9831 21.061C42.2418 21.8023 41.2364 22.2187 40.188 22.2187Z"></path><path d="M78.0389 18.0389C78.0389 13.7266 74.4112 10.5374 70.2714 10.5374C66.5467 10.5374 63.2317 13.6781 63.2317 18.2635V30.5193H66.7156V23.9018C67.8763 25.0409 69.0802 25.5422 70.8015 25.5422C74.6915 25.5422 78.0371 22.2919 78.0371 18.0389H78.0389ZM74.74 17.9958C74.74 18.7776 74.5082 19.5418 74.0738 20.1919C73.6395 20.8419 73.0221 21.3486 72.2998 21.6478C71.5775 21.947 70.7827 22.0252 70.0159 21.8727C69.2492 21.7202 68.5448 21.3437 67.992 20.7909C67.4392 20.2381 67.0627 19.5337 66.9102 18.7669C66.7577 18.0001 66.8359 17.2054 67.1351 16.4831C67.4343 15.7608 67.941 15.1434 68.591 14.709C69.2411 14.2747 70.0053 14.0429 70.7871 14.0429C71.8355 14.0429 72.8409 14.4593 73.5822 15.2006C74.3236 15.942 74.74 16.9474 74.74 17.9958Z"></path><path opacity="var(--svg-path-opacity)" d="M89.2939 10.3688V6.86871C89.7565 6.65259 90.1481 6.30952 90.4233 5.87946C90.6984 5.44939 90.8458 4.95002 90.8481 4.43948V4.35862C90.8481 3.64382 90.5642 2.9583 90.0587 2.45285C89.5533 1.94741 88.8678 1.66346 88.153 1.66346H88.0721C87.3573 1.66346 86.6718 1.94741 86.1664 2.45285C85.6609 2.9583 85.377 3.64382 85.377 4.35862V4.43948C85.3793 4.95002 85.5267 5.44939 85.8018 5.87946C86.077 6.30952 86.4686 6.65259 86.9312 6.86871V10.3688C85.6017 10.5722 84.3497 11.1233 83.3017 11.9662L73.7033 4.48979C73.7713 4.24324 73.8075 3.98905 73.8111 3.73334C73.8122 3.1327 73.6351 2.54522 73.3022 2.04524C72.9694 1.54525 72.4957 1.15521 71.9412 0.924446C71.3866 0.693685 70.7761 0.632572 70.1868 0.748837C69.5975 0.865103 69.056 1.15352 68.6306 1.57762C68.2053 2.00171 67.9152 2.54243 67.7972 3.13137C67.6792 3.72031 67.7385 4.33102 67.9676 4.88625C68.1968 5.44149 68.5854 5.9163 69.0844 6.25063C69.5834 6.58496 70.1703 6.76379 70.771 6.7645C71.2962 6.76215 71.8117 6.62214 72.2659 6.35843L81.7187 13.7126C80.8694 14.9955 80.4262 16.5045 80.447 18.0429C80.4679 19.5813 80.9517 21.0778 81.8355 22.3371L78.9607 25.212C78.7282 25.1377 78.486 25.0984 78.242 25.0952C77.7489 25.0955 77.2669 25.2421 76.8571 25.5162C76.4473 25.7904 76.1279 26.1799 75.9393 26.6356C75.7508 27.0912 75.7016 27.5925 75.7979 28.0761C75.8941 28.5597 76.1316 29.0039 76.4803 29.3526C76.829 29.7013 77.2732 29.9387 77.7568 30.035C78.2404 30.1313 78.7417 30.0821 79.1973 29.8935C79.653 29.705 80.0425 29.3856 80.3166 28.9758C80.5908 28.5659 80.7373 28.084 80.7377 27.5909C80.7346 27.3469 80.6952 27.1047 80.6209 26.8722L83.4652 24.0279C84.3927 24.7416 85.4712 25.2336 86.6181 25.4661C87.7651 25.6987 88.95 25.6657 90.0822 25.3696C91.2144 25.0735 92.2639 24.5222 93.1501 23.7579C94.0364 22.9936 94.736 22.0367 95.1953 20.9603C95.6546 19.8839 95.8615 18.7167 95.8001 17.548C95.7386 16.3793 95.4106 15.2402 94.841 14.2179C94.2713 13.1956 93.4753 12.3172 92.5138 11.6501C91.5524 10.9829 90.4509 10.5446 89.2939 10.3688ZM88.1152 21.879C87.3372 21.8783 86.5769 21.6469 85.9303 21.2142C85.2837 20.7815 84.7799 20.1668 84.4826 19.4478C84.1852 18.7288 84.1077 17.9378 84.2598 17.1748C84.4119 16.4118 84.7868 15.711 85.3371 15.161C85.8873 14.611 86.5883 14.2364 87.3514 14.0847C88.1145 13.9329 88.9054 14.0108 89.6243 14.3085C90.3431 14.6061 90.9576 15.1102 91.39 15.757C91.8224 16.4037 92.0534 17.1642 92.0538 17.9422C92.0538 18.9858 91.6392 19.9867 90.9013 20.7247C90.1633 21.4626 89.1624 21.8772 88.1188 21.8772"></path></g><defs><clipPath id="clip-hubspot-mono"><rect width="105.19" height="29.8175" fill="current" transform="translate(0.174072 0.692871)"></rect></clipPath></defs></svg>
