<?xml version="1.0" encoding="UTF-8" standalone="no"?><!DOCTYPE svg PUBLIC "-//W3C//DTD SVG 1.1//EN" "http://www.w3.org/Graphics/SVG/1.1/DTD/svg11.dtd"><svg width="100%" height="100%" viewBox="0 0 97 48" version="1.1" xmlns="http://www.w3.org/2000/svg" xmlns:xlink="http://www.w3.org/1999/xlink" xml:space="preserve" xmlns:serif="http://www.serif.com/" style="fill-rule:evenodd;clip-rule:evenodd;stroke-linejoin:round;stroke-miterlimit:2;"><g><path d="M68.424,18.964c0,-2.797 -3.502,-5.447 -8.871,-7.09c1.239,-5.473 0.688,-9.827 -1.739,-11.221c-0.559,-0.327 -1.213,-0.482 -1.927,-0.482l-0,1.919c0.396,-0 0.714,0.077 0.981,0.224c1.17,0.671 1.678,3.226 1.282,6.513c-0.095,0.809 -0.249,1.661 -0.439,2.53c-1.687,-0.413 -3.528,-0.731 -5.464,-0.938c-1.162,-1.592 -2.366,-3.037 -3.58,-4.302c2.806,-2.607 5.439,-4.036 7.229,-4.036l-0,-1.919c-2.367,0 -5.465,1.687 -8.597,4.613c-3.132,-2.909 -6.23,-4.578 -8.596,-4.578l-0,1.919c1.781,-0 4.423,1.419 7.228,4.01c-1.205,1.264 -2.409,2.701 -3.554,4.293c-1.945,0.207 -3.786,0.525 -5.473,0.947c-0.198,-0.861 -0.344,-1.695 -0.447,-2.495c-0.404,-3.288 0.095,-5.843 1.256,-6.523c0.258,-0.155 0.594,-0.224 0.99,-0.224l-0,-1.919c-0.723,0 -1.377,0.155 -1.945,0.482c-2.418,1.394 -2.96,5.74 -1.712,11.195c-5.353,1.652 -8.838,4.294 -8.838,7.082c0,2.797 3.503,5.447 8.872,7.091c-1.239,5.472 -0.688,9.826 1.738,11.22c0.56,0.327 1.214,0.482 1.936,0.482c2.367,0 5.465,-1.686 8.597,-4.612c3.132,2.909 6.23,4.578 8.596,4.578c0.723,-0 1.377,-0.155 1.945,-0.482c2.418,-1.394 2.96,-5.74 1.712,-11.195c5.335,-1.644 8.82,-4.294 8.82,-7.082Zm-11.203,-5.739c-0.319,1.11 -0.715,2.254 -1.162,3.399c-0.353,-0.689 -0.723,-1.377 -1.127,-2.066c-0.396,-0.688 -0.818,-1.359 -1.239,-2.013c1.221,0.181 2.4,0.404 3.528,0.68Zm-3.941,9.164c-0.672,1.162 -1.36,2.263 -2.074,3.287c-1.282,0.112 -2.582,0.172 -3.89,0.172c-1.299,0 -2.598,-0.06 -3.872,-0.163c-0.714,-1.025 -1.411,-2.117 -2.082,-3.27c-0.654,-1.128 -1.248,-2.272 -1.79,-3.425c0.533,-1.153 1.136,-2.306 1.781,-3.433c0.671,-1.162 1.36,-2.264 2.074,-3.288c1.282,-0.111 2.581,-0.172 3.889,-0.172c1.3,0 2.599,0.061 3.873,0.164c0.714,1.024 1.411,2.117 2.082,3.27c0.654,1.127 1.248,2.271 1.79,3.425c-0.542,1.153 -1.136,2.306 -1.781,3.433Zm2.779,-1.119c0.452,1.122 0.848,2.265 1.188,3.425c-1.128,0.275 -2.315,0.508 -3.546,0.688c0.422,-0.662 0.843,-1.342 1.239,-2.039c0.396,-0.688 0.766,-1.385 1.119,-2.074Zm-8.725,9.182c-0.801,-0.826 -1.601,-1.747 -2.393,-2.754c0.775,0.035 1.566,0.06 2.367,0.06c0.809,0 1.609,-0.017 2.392,-0.06c-0.739,0.96 -1.529,1.879 -2.366,2.754Zm-6.403,-5.069c-1.221,-0.18 -2.4,-0.404 -3.527,-0.679c0.318,-1.11 0.714,-2.255 1.161,-3.399c0.353,0.688 0.723,1.376 1.127,2.065c0.405,0.688 0.818,1.359 1.239,2.013Zm6.36,-17.906c0.8,0.826 1.6,1.746 2.392,2.753c-0.775,-0.034 -1.566,-0.06 -2.367,-0.06c-0.809,-0 -1.609,0.017 -2.392,0.06c0.739,-0.96 1.529,-1.879 2.367,-2.753Zm-6.368,5.068c-0.422,0.662 -0.843,1.342 -1.239,2.039c-0.396,0.689 -0.766,1.377 -1.119,2.065c-0.452,-1.121 -0.848,-2.264 -1.187,-3.424c1.127,-0.267 2.314,-0.499 3.545,-0.68Zm-7.788,10.773c-3.046,-1.299 -5.016,-3.003 -5.016,-4.354c-0,-1.351 1.97,-3.063 5.016,-4.354c0.74,-0.318 1.549,-0.602 2.384,-0.869c0.491,1.686 1.136,3.442 1.936,5.24c-0.791,1.79 -1.428,3.537 -1.91,5.215c-0.852,-0.267 -1.661,-0.559 -2.41,-0.878Zm4.63,12.297c-1.17,-0.671 -1.678,-3.227 -1.282,-6.514c0.095,-0.809 0.249,-1.661 0.439,-2.53c1.686,0.413 3.528,0.731 5.464,0.938c1.161,1.592 2.366,3.037 3.579,4.302c-2.805,2.608 -5.438,4.036 -7.228,4.036c-0.387,-0.009 -0.714,-0.086 -0.972,-0.232Zm20.411,-6.557c0.404,3.287 -0.095,5.842 -1.257,6.522c-0.258,0.155 -0.593,0.224 -0.989,0.224c-1.781,-0 -4.423,-1.42 -7.228,-4.01c1.204,-1.265 2.409,-2.702 3.554,-4.294c1.944,-0.206 3.786,-0.525 5.472,-0.946c0.198,0.869 0.353,1.703 0.448,2.504Zm3.313,-5.74c-0.74,0.319 -1.549,0.603 -2.384,0.869c-0.49,-1.686 -1.136,-3.442 -1.936,-5.24c0.792,-1.79 1.428,-3.537 1.91,-5.215c0.852,0.267 1.661,0.56 2.418,0.878c3.046,1.299 5.017,3.003 5.017,4.354c-0.009,1.351 -1.979,3.063 -5.025,4.354Z" style="fill-rule:nonzero;"/><path d="M47.308,22.897c2.172,-0 3.932,-1.761 3.932,-3.933c0,-2.172 -1.76,-3.932 -3.932,-3.932c-2.172,-0 -3.933,1.76 -3.933,3.932c0,2.172 1.761,3.933 3.933,3.933Zm-19.183,21.631l-1.298,0l0,2.236l-0.732,-0l-0,-5.527l1.829,0c0.623,0 1.101,0.142 1.435,0.425c0.337,0.284 0.505,0.696 0.505,1.238c-0,0.344 -0.094,0.644 -0.281,0.899c-0.185,0.256 -0.443,0.447 -0.774,0.573l1.298,2.346l-0,0.046l-0.782,-0l-1.2,-2.236Zm-1.298,-0.596l1.12,0c0.362,0 0.649,-0.094 0.862,-0.281c0.215,-0.187 0.322,-0.437 0.322,-0.751c0,-0.342 -0.102,-0.604 -0.307,-0.786c-0.203,-0.182 -0.496,-0.275 -0.881,-0.277l-1.116,-0l0,2.095Zm5.656,2.908c-0.557,-0 -1.01,-0.182 -1.359,-0.547c-0.349,-0.367 -0.524,-0.857 -0.524,-1.469l0,-0.129c0,-0.407 0.077,-0.77 0.232,-1.089c0.157,-0.322 0.374,-0.572 0.653,-0.752c0.28,-0.182 0.584,-0.273 0.911,-0.273c0.534,-0 0.949,0.176 1.244,0.527c0.297,0.352 0.445,0.856 0.445,1.511l-0,0.292l-2.783,0c0.011,0.405 0.128,0.733 0.353,0.984c0.228,0.247 0.517,0.372 0.866,0.372c0.248,-0 0.458,-0.051 0.63,-0.152c0.172,-0.101 0.322,-0.236 0.452,-0.403l0.428,0.334c-0.344,0.529 -0.86,0.794 -1.548,0.794Zm-0.087,-3.682c-0.284,-0 -0.522,0.104 -0.714,0.311c-0.192,0.205 -0.311,0.494 -0.357,0.866l2.057,-0l0,-0.054c-0.02,-0.356 -0.116,-0.632 -0.288,-0.827c-0.172,-0.197 -0.405,-0.296 -0.698,-0.296Zm5.04,3.606c-0.04,-0.081 -0.073,-0.225 -0.098,-0.433c-0.327,0.339 -0.717,0.509 -1.17,0.509c-0.404,-0 -0.737,-0.114 -0.998,-0.342c-0.258,-0.23 -0.387,-0.521 -0.387,-0.873c0,-0.428 0.162,-0.759 0.486,-0.994c0.326,-0.238 0.784,-0.357 1.374,-0.357l0.683,-0l0,-0.323c0,-0.245 -0.073,-0.44 -0.22,-0.584c-0.147,-0.147 -0.363,-0.22 -0.649,-0.22c-0.251,-0 -0.461,0.063 -0.63,0.189c-0.17,0.127 -0.254,0.28 -0.254,0.46l-0.706,-0c-0,-0.205 0.072,-0.403 0.216,-0.593c0.147,-0.192 0.344,-0.344 0.592,-0.455c0.251,-0.111 0.525,-0.167 0.824,-0.167c0.473,-0 0.844,0.119 1.112,0.357c0.268,0.235 0.407,0.56 0.417,0.975l0,1.89c0,0.378 0.048,0.677 0.145,0.9l-0,0.061l-0.737,-0Zm-1.165,-0.535c0.22,-0 0.429,-0.057 0.626,-0.171c0.198,-0.114 0.34,-0.262 0.429,-0.444l0,-0.843l-0.55,0c-0.861,0 -1.291,0.252 -1.291,0.755c0,0.22 0.074,0.393 0.22,0.517c0.147,0.123 0.336,0.186 0.566,0.186Zm4.505,0.038c0.251,-0 0.47,-0.076 0.657,-0.228c0.187,-0.152 0.291,-0.342 0.311,-0.57l0.665,0c-0.013,0.236 -0.094,0.46 -0.243,0.672c-0.15,0.213 -0.35,0.382 -0.6,0.509c-0.248,0.126 -0.511,0.19 -0.79,0.19c-0.559,-0 -1.004,-0.186 -1.336,-0.558c-0.329,-0.375 -0.493,-0.886 -0.493,-1.534l-0,-0.117c-0,-0.4 0.073,-0.756 0.22,-1.067c0.147,-0.311 0.357,-0.553 0.63,-0.725c0.276,-0.172 0.601,-0.258 0.976,-0.258c0.46,-0 0.842,0.138 1.146,0.414c0.306,0.275 0.469,0.634 0.49,1.074l-0.665,-0c-0.02,-0.266 -0.121,-0.484 -0.303,-0.653c-0.18,-0.172 -0.403,-0.258 -0.668,-0.258c-0.357,-0 -0.634,0.129 -0.832,0.387c-0.194,0.256 -0.292,0.626 -0.292,1.112l0,0.133c0,0.473 0.098,0.838 0.292,1.093c0.195,0.256 0.474,0.384 0.835,0.384Zm3.375,-4.605l-0,0.995l0.767,-0l-0,0.543l-0.767,-0l-0,2.546c-0,0.165 0.034,0.289 0.102,0.372c0.069,0.081 0.185,0.122 0.35,0.122c0.08,-0 0.192,-0.015 0.333,-0.046l0,0.57c-0.184,0.05 -0.364,0.076 -0.539,0.076c-0.313,-0 -0.55,-0.095 -0.709,-0.285c-0.16,-0.19 -0.239,-0.459 -0.239,-0.809l-0,-2.546l-0.748,-0l-0,-0.543l0.748,-0l-0,-0.995l0.702,0Zm7.876,5.102l-0.733,-0l-2.782,-4.259l0,4.259l-0.732,-0l-0,-5.527l0.732,0l2.79,4.278l-0,-4.278l0.725,0l-0,5.527Zm3.72,-0c-0.041,-0.081 -0.074,-0.225 -0.099,-0.433c-0.327,0.339 -0.716,0.509 -1.169,0.509c-0.405,-0 -0.738,-0.114 -0.998,-0.342c-0.258,-0.23 -0.388,-0.521 -0.388,-0.873c0,-0.428 0.162,-0.759 0.486,-0.994c0.327,-0.238 0.785,-0.357 1.374,-0.357l0.684,-0l-0,-0.323c-0,-0.245 -0.074,-0.44 -0.221,-0.584c-0.146,-0.147 -0.363,-0.22 -0.649,-0.22c-0.25,-0 -0.46,0.063 -0.63,0.189c-0.169,0.127 -0.254,0.28 -0.254,0.46l-0.706,-0c-0,-0.205 0.072,-0.403 0.216,-0.593c0.147,-0.192 0.344,-0.344 0.592,-0.455c0.251,-0.111 0.525,-0.167 0.824,-0.167c0.473,-0 0.844,0.119 1.112,0.357c0.268,0.235 0.408,0.56 0.418,0.975l-0,1.89c-0,0.378 0.048,0.677 0.144,0.9l0,0.061l-0.736,-0Zm-1.166,-0.535c0.221,-0 0.429,-0.057 0.627,-0.171c0.197,-0.114 0.34,-0.262 0.429,-0.444l-0,-0.843l-0.551,0c-0.86,0 -1.29,0.252 -1.29,0.755c-0,0.22 0.073,0.393 0.22,0.517c0.146,0.123 0.335,0.186 0.565,0.186Zm3.811,-4.567l0,0.995l0.767,-0l-0,0.543l-0.767,-0l0,2.546c0,0.165 0.034,0.289 0.103,0.372c0.068,0.081 0.184,0.122 0.349,0.122c0.081,-0 0.192,-0.015 0.334,-0.046l-0,0.57c-0.185,0.05 -0.364,0.076 -0.539,0.076c-0.314,-0 -0.55,-0.095 -0.71,-0.285c-0.159,-0.19 -0.239,-0.459 -0.239,-0.809l0,-2.546l-0.748,-0l0,-0.543l0.748,-0l0,-0.995l0.702,0Zm2.354,5.102l-0.703,-0l0,-4.107l0.703,-0l-0,4.107Zm-0.76,-5.197c0,-0.113 0.035,-0.21 0.103,-0.288c0.071,-0.079 0.174,-0.118 0.311,-0.118c0.137,0 0.241,0.039 0.311,0.118c0.071,0.078 0.107,0.175 0.107,0.288c-0,0.114 -0.036,0.209 -0.107,0.285c-0.07,0.076 -0.174,0.114 -0.311,0.114c-0.137,0 -0.24,-0.038 -0.311,-0.114c-0.068,-0.076 -0.103,-0.171 -0.103,-0.285Zm3.242,4.244l1.017,-3.154l0.718,-0l-1.473,4.107l-0.535,-0l-1.488,-4.107l0.717,-0l1.044,3.154Zm4.061,1.029c-0.556,-0 -1.009,-0.182 -1.359,-0.547c-0.349,-0.367 -0.523,-0.857 -0.523,-1.469l-0,-0.129c-0,-0.407 0.077,-0.77 0.231,-1.089c0.157,-0.322 0.375,-0.572 0.653,-0.752c0.281,-0.182 0.585,-0.273 0.911,-0.273c0.534,-0 0.949,0.176 1.245,0.527c0.296,0.352 0.444,0.856 0.444,1.511l0,0.292l-2.782,0c0.01,0.405 0.128,0.733 0.353,0.984c0.227,0.247 0.516,0.372 0.865,0.372c0.248,-0 0.458,-0.051 0.63,-0.152c0.172,-0.101 0.323,-0.236 0.452,-0.403l0.429,0.334c-0.344,0.529 -0.861,0.794 -1.549,0.794Zm-0.087,-3.682c-0.283,-0 -0.521,0.104 -0.714,0.311c-0.192,0.205 -0.311,0.494 -0.356,0.866l2.057,-0l-0,-0.054c-0.02,-0.356 -0.117,-0.632 -0.289,-0.827c-0.172,-0.197 -0.405,-0.296 -0.698,-0.296Z" style="fill-rule:nonzero;"/></g></svg>