<?xml version="1.0" encoding="UTF-8" standalone="no"?><!DOCTYPE svg PUBLIC "-//W3C//DTD SVG 1.1//EN" "http://www.w3.org/Graphics/SVG/1.1/DTD/svg11.dtd"><svg width="100%" height="100%" viewBox="0 0 97 48" version="1.1" xmlns="http://www.w3.org/2000/svg" xmlns:xlink="http://www.w3.org/1999/xlink" xml:space="preserve" xmlns:serif="http://www.serif.com/" style="fill-rule:evenodd;clip-rule:evenodd;stroke-linejoin:round;stroke-miterlimit:2;"><g><path d="M71.457,5.325l0,36.945c0,2.474 -2.009,4.483 -4.483,4.483l-36.944,0c-2.475,0 -4.484,-2.009 -4.484,-4.483l-0,-36.945c-0,-2.474 2.009,-4.483 4.484,-4.483l36.944,-0c2.474,-0 4.483,2.009 4.483,4.483Zm-17.491,32.051l0,4.489c0.73,0.374 1.593,0.654 2.589,0.841c0.997,0.187 2.047,0.281 3.151,0.281c1.076,0 2.098,-0.103 3.066,-0.309c0.969,-0.205 1.818,-0.544 2.547,-1.017c0.73,-0.472 1.308,-1.089 1.734,-1.851c0.425,-0.763 0.638,-1.705 0.638,-2.827c0,-0.814 -0.121,-1.527 -0.365,-2.139c-0.243,-0.613 -0.594,-1.158 -1.052,-1.635c-0.459,-0.476 -1.008,-0.904 -1.649,-1.283c-0.641,-0.379 -1.364,-0.737 -2.168,-1.073c-0.59,-0.243 -1.118,-0.48 -1.586,-0.709c-0.468,-0.229 -0.866,-0.463 -1.193,-0.701c-0.328,-0.239 -0.58,-0.491 -0.758,-0.758c-0.178,-0.266 -0.267,-0.568 -0.267,-0.904c0,-0.309 0.08,-0.587 0.239,-0.835c0.159,-0.248 0.384,-0.461 0.674,-0.638c0.29,-0.178 0.645,-0.316 1.066,-0.414c0.421,-0.098 0.889,-0.147 1.404,-0.147c0.374,-0 0.769,0.028 1.185,0.084c0.417,0.056 0.835,0.142 1.256,0.259c0.421,0.117 0.831,0.264 1.228,0.442c0.398,0.178 0.765,0.384 1.102,0.617l0,-4.194c-0.683,-0.262 -1.429,-0.456 -2.238,-0.582c-0.81,-0.126 -1.738,-0.19 -2.786,-0.19c-1.067,0 -2.077,0.115 -3.031,0.344c-0.955,0.229 -1.794,0.587 -2.519,1.073c-0.726,0.487 -1.299,1.106 -1.72,1.859c-0.421,0.753 -0.631,1.653 -0.631,2.7c-0,1.338 0.386,2.479 1.158,3.423c0.772,0.945 1.943,1.744 3.515,2.399c0.618,0.253 1.193,0.5 1.726,0.743c0.534,0.244 0.994,0.496 1.383,0.758c0.388,0.262 0.694,0.547 0.919,0.856c0.224,0.308 0.337,0.659 0.337,1.052c-0,0.29 -0.07,0.559 -0.211,0.806c-0.14,0.248 -0.353,0.463 -0.638,0.646c-0.286,0.182 -0.641,0.325 -1.067,0.428c-0.426,0.102 -0.924,0.154 -1.495,0.154c-0.973,-0 -1.936,-0.171 -2.891,-0.512c-0.954,-0.341 -1.838,-0.853 -2.652,-1.536Zm-7.546,-11.06l5.758,-0l0,-3.684l-16.051,-0l0,3.684l5.731,-0l-0,16.402l4.562,-0l-0,-16.402Z"/></g></svg>